# MagicaVoxel @ Ephtracy

# group
o 

# material
mtllib Archer.mtl
usemtl palette

# normals
vn -1 0 0
vn 1 0 0
vn 0 0 1
vn 0 0 -1
vn 0 -1 0
vn 0 1 0

# texcoords
vt 0.783203 0.5
vt 0.787109 0.5
vt 0.791016 0.5
vt 0.849609 0.5
vt 0.876953 0.5
vt 0.974609 0.5

# verts
v -1.3 -0.1 0.2
v -1.3 -0.1 5.96046e-008
v -1.3 0.1 0.2
v -1.3 0.1 5.96046e-008
v -1.3 0.1 -0.2
v -1.3 0.5 0.2
v -1.3 0.5 -0.2
v -1.3 1.5 0.2
v -1.3 1.5 -0.2
v -1.1 -0.1 0.4
v -1.1 -0.1 0.2
v -1.1 -0.1 5.96046e-008
v -1.1 -0.1 -0.2
v -1.1 0.1 0.4
v -1.1 0.1 0.2
v -1.1 0.1 5.96046e-008
v -1.1 0.1 -0.2
v -1.1 0.1 -0.4
v -1.1 0.5 0.2
v -1.1 0.5 -0.2
v -1.1 1.3 0.4
v -1.1 1.3 0.2
v -1.1 1.5 0.2
v -1.1 1.5 -0.2
v -1.1 1.7 0.2
v -1.1 1.7 -0.4
v -1.1 2.5 0.6
v -1.1 2.5 -0.6
v -1.1 2.9 0.6
v -1.1 2.9 -0.6
v -1.1 3.1 0.6
v -1.1 3.1 -0.6
v -0.9 1.3 0.4
v -0.9 1.3 0.2
v -0.9 1.7 0.4
v -0.9 1.7 0.2
v -0.9 1.9 0.4
v -0.9 1.9 -0.4
v -0.9 2.3 0.4
v -0.9 2.3 0.2
v -0.9 2.5 0.4
v -0.9 2.5 0.2
v -0.9 2.5 -0.4
v -0.7 1.7 0.2
v -0.7 1.7 -0.2
v -0.7 1.9 0.2
v -0.7 1.9 -0.2
v -0.1 -0.1 0.4
v -0.1 -0.1 0.2
v -0.1 0.1 0.4
v -0.1 0.1 0.2
v 0.0999999 2.5 0.4
v 0.0999999 2.5 -0.4
v 0.0999999 2.7 0.4
v 0.0999999 2.7 0.2
v 0.0999999 2.7 5.96046e-008
v 0.0999999 2.7 -0.4
v 0.0999999 3.1 0.2
v 0.0999999 3.1 5.96046e-008
v 0.0999999 3.3 0.2
v 0.0999999 3.3 5.96046e-008
v -0.9 -0.1 0.4
v -0.9 -0.1 0.2
v -0.9 0.1 0.4
v -0.9 0.1 0.2
v -0.3 1.7 0.2
v -0.3 1.7 -0.2
v -0.3 1.9 0.2
v -0.3 1.9 -0.2
v -0.1 1.3 0.4
v -0.1 1.3 0.2
v -0.1 1.7 0.4
v -0.1 1.7 0.2
v -0.1 1.9 0.4
v -0.1 1.9 -0.4
v -0.1 2.3 0.4
v -0.1 2.3 0.2
v -0.1 2.5 0.4
v -0.1 2.5 0.2
v -0.1 2.5 -0.2
v -0.1 2.5 -0.4
v -0.1 2.7 0.4
v -0.1 2.7 0.2
v -0.1 2.7 5.96046e-008
v -0.1 2.7 -0.2
v -0.1 2.7 -0.4
v -0.1 2.9 0.6
v -0.1 2.9 0.2
v -0.1 2.9 5.96046e-008
v -0.1 2.9 -0.6
v -0.1 3.1 0.6
v -0.1 3.1 0.2
v -0.1 3.1 5.96046e-008
v -0.1 3.1 -0.6
v 0.0999999 -0.1 0.4
v 0.0999999 -0.1 0.2
v 0.0999999 -0.1 5.96046e-008
v 0.0999999 -0.1 -0.2
v 0.0999999 0.1 0.4
v 0.0999999 0.1 0.2
v 0.0999999 0.1 5.96046e-008
v 0.0999999 0.1 -0.2
v 0.0999999 0.1 -0.4
v 0.0999999 0.5 0.2
v 0.0999999 0.5 -0.2
v 0.0999999 1.3 0.4
v 0.0999999 1.3 0.2
v 0.0999999 1.5 0.2
v 0.0999999 1.5 -0.2
v 0.0999999 1.7 0.2
v 0.0999999 1.7 -0.4
v 0.0999999 2.7 0.6
v 0.0999999 2.7 0.2
v 0.0999999 2.7 5.96046e-008
v 0.0999999 2.7 -0.6
v 0.0999999 2.9 0.6
v 0.0999999 2.9 0.2
v 0.0999999 2.9 5.96046e-008
v 0.0999999 2.9 -0.6
v 0.3 -0.1 0.2
v 0.3 -0.1 5.96046e-008
v 0.3 0.1 0.2
v 0.3 0.1 5.96046e-008
v 0.3 0.1 -0.2
v 0.3 0.5 0.2
v 0.3 0.5 -0.2
v 0.3 1.5 0.2
v 0.3 1.5 -0.2
v 0.3 2.5 0.6
v 0.3 2.5 -0.6
v 0.3 2.7 0.6
v 0.3 2.7 0.2
v 0.3 2.7 5.96046e-008
v 0.3 2.7 -0.6
v 0.3 2.9 0.2
v 0.3 2.9 5.96046e-008
v 0.5 2.9 0.2
v 0.5 2.9 5.96046e-008
v 0.5 3.3 0.2
v 0.5 3.3 5.96046e-008
v -1.1 2.5 0.6
v -1.1 2.9 0.6
v -1.1 3.1 0.6
v -0.9 2.9 0.6
v -0.9 3.1 0.6
v -0.1 2.9 0.6
v -0.1 3.1 0.6
v 0.0999999 2.7 0.6
v 0.0999999 2.9 0.6
v 0.3 2.5 0.6
v 0.3 2.7 0.6
v -1.1 -0.1 0.4
v -1.1 0.1 0.4
v -1.1 1.3 0.4
v -0.9 -0.1 0.4
v -0.9 0.1 0.4
v -0.9 0.3 0.4
v -0.9 0.7 0.4
v -0.9 0.9 0.4
v -0.9 1.1 0.4
v -0.9 1.3 0.4
v -0.9 1.7 0.4
v -0.9 1.9 0.4
v -0.9 2.3 0.4
v -0.9 2.5 0.4
v -0.7 0.3 0.4
v -0.7 0.5 0.4
v -0.7 0.7 0.4
v -0.7 0.9 0.4
v -0.7 1.1 0.4
v -0.7 1.9 0.4
v -0.7 2.1 0.4
v -0.7 2.3 0.4
v -0.7 2.5 0.4
v -0.5 0.3 0.4
v -0.5 0.5 0.4
v -0.5 0.7 0.4
v -0.5 0.9 0.4
v -0.5 1.1 0.4
v -0.3 0.3 0.4
v -0.3 0.5 0.4
v -0.3 0.9 0.4
v -0.3 1.1 0.4
v -0.3 1.3 0.4
v -0.3 1.9 0.4
v -0.3 2.1 0.4
v -0.3 2.3 0.4
v -0.3 2.5 0.4
v -0.1 -0.1 0.4
v -0.1 0.1 0.4
v -0.1 0.5 0.4
v -0.1 0.7 0.4
v -0.1 1.1 0.4
v -0.1 1.3 0.4
v -0.1 1.7 0.4
v -0.1 1.9 0.4
v -0.1 2.3 0.4
v -0.1 2.5 0.4
v 0.0999999 -0.1 0.4
v 0.0999999 0.1 0.4
v 0.0999999 1.3 0.4
v -1.3 -0.1 0.2
v -1.3 0.1 0.2
v -1.3 0.5 0.2
v -1.3 1.5 0.2
v -1.1 -0.1 0.2
v -1.1 0.1 0.2
v -1.1 0.5 0.2
v -1.1 1.3 0.2
v -1.1 1.5 0.2
v -1.1 1.7 0.2
v -0.9 -0.1 0.2
v -0.9 0.1 0.2
v -0.9 1.3 0.2
v -0.9 1.7 0.2
v -0.7 1.7 0.2
v -0.7 1.9 0.2
v -0.3 1.7 0.2
v -0.3 1.9 0.2
v -0.1 -0.1 0.2
v -0.1 0.1 0.2
v -0.1 1.3 0.2
v -0.1 1.7 0.2
v -0.1 2.9 0.2
v -0.1 3.1 0.2
v 0.0999999 -0.1 0.2
v 0.0999999 0.1 0.2
v 0.0999999 0.5 0.2
v 0.0999999 1.3 0.2
v 0.0999999 1.5 0.2
v 0.0999999 1.7 0.2
v 0.0999999 2.7 0.2
v 0.0999999 2.9 0.2
v 0.0999999 3.1 0.2
v 0.0999999 3.3 0.2
v 0.3 -0.1 0.2
v 0.3 0.1 0.2
v 0.3 0.5 0.2
v 0.3 1.5 0.2
v 0.3 2.7 0.2
v 0.3 2.9 0.2
v 0.5 2.9 0.2
v 0.5 3.3 0.2
v -0.1 2.5 -0.4
v -0.1 2.7 -0.4
v 0.0999999 2.5 -0.4
v 0.0999999 2.7 -0.4
v -0.1 2.5 0.4
v -0.1 2.7 0.4
v 0.0999999 2.5 0.4
v 0.0999999 2.7 0.4
v -1.3 -0.1 5.96046e-008
v -1.3 0.1 5.96046e-008
v -1.1 -0.1 5.96046e-008
v -1.1 0.1 5.96046e-008
v -0.1 2.9 5.96046e-008
v -0.1 3.1 5.96046e-008
v 0.0999999 -0.1 5.96046e-008
v 0.0999999 0.1 5.96046e-008
v 0.0999999 2.7 5.96046e-008
v 0.0999999 2.9 5.96046e-008
v 0.0999999 3.1 5.96046e-008
v 0.0999999 3.3 5.96046e-008
v 0.3 -0.1 5.96046e-008
v 0.3 0.1 5.96046e-008
v 0.3 2.7 5.96046e-008
v 0.3 2.9 5.96046e-008
v 0.5 2.9 5.96046e-008
v 0.5 3.3 5.96046e-008
v -1.3 0.1 -0.2
v -1.3 0.5 -0.2
v -1.3 1.5 -0.2
v -1.1 -0.1 -0.2
v -1.1 0.1 -0.2
v -1.1 0.5 -0.2
v -1.1 1.5 -0.2
v -0.7 1.7 -0.2
v -0.7 1.9 -0.2
v -0.3 1.7 -0.2
v -0.3 1.9 -0.2
v 0.0999999 -0.1 -0.2
v 0.0999999 0.1 -0.2
v 0.0999999 0.5 -0.2
v 0.0999999 1.5 -0.2
v 0.3 0.1 -0.2
v 0.3 0.5 -0.2
v 0.3 1.5 -0.2
v -1.1 0.1 -0.4
v -1.1 1.7 -0.4
v -0.9 1.9 -0.4
v -0.9 2.5 -0.4
v -0.1 1.9 -0.4
v -0.1 2.5 -0.4
v 0.0999999 0.1 -0.4
v 0.0999999 1.7 -0.4
v -1.1 2.5 -0.6
v -1.1 2.9 -0.6
v -1.1 3.1 -0.6
v -0.9 2.9 -0.6
v -0.9 3.1 -0.6
v -0.1 2.9 -0.6
v -0.1 3.1 -0.6
v 0.0999999 2.7 -0.6
v 0.0999999 2.9 -0.6
v 0.3 2.5 -0.6
v 0.3 2.7 -0.6
v -1.1 -0.1 0.4
v -0.9 -0.1 0.4
v -0.1 -0.1 0.4
v 0.0999999 -0.1 0.4
v -1.3 -0.1 0.2
v -1.1 -0.1 0.2
v -0.9 -0.1 0.2
v -0.1 -0.1 0.2
v 0.0999999 -0.1 0.2
v 0.3 -0.1 0.2
v -1.3 -0.1 5.96046e-008
v -1.1 -0.1 5.96046e-008
v -0.9 -0.1 5.96046e-008
v -0.1 -0.1 5.96046e-008
v 0.0999999 -0.1 5.96046e-008
v 0.3 -0.1 5.96046e-008
v -1.1 -0.1 -0.2
v 0.0999999 -0.1 -0.2
v -0.9 0.1 0.4
v -0.1 0.1 0.4
v -0.9 0.1 0.2
v -0.1 0.1 0.2
v -1.3 0.1 5.96046e-008
v -1.1 0.1 5.96046e-008
v 0.0999999 0.1 5.96046e-008
v 0.3 0.1 5.96046e-008
v -1.3 0.1 -0.2
v -1.1 0.1 -0.2
v 0.0999999 0.1 -0.2
v 0.3 0.1 -0.2
v -1.1 0.1 -0.4
v 0.0999999 0.1 -0.4
v -0.9 1.9 0.4
v -0.7 1.9 0.4
v -0.3 1.9 0.4
v -0.1 1.9 0.4
v -0.7 1.9 0.2
v -0.3 1.9 0.2
v -0.7 1.9 -0.2
v -0.3 1.9 -0.2
v -0.9 1.9 -0.4
v -0.1 1.9 -0.4
v -1.1 2.5 0.6
v 0.3 2.5 0.6
v -0.9 2.5 0.4
v -0.7 2.5 0.4
v -0.3 2.5 0.4
v -0.1 2.5 0.4
v 0.0999999 2.5 0.4
v -0.9 2.5 0.2
v -0.9 2.5 -0.4
v -0.1 2.5 -0.4
v 0.0999999 2.5 -0.4
v -1.1 2.5 -0.6
v 0.3 2.5 -0.6
v -0.1 2.7 0.4
v 0.0999999 2.7 0.4
v -0.1 2.7 0.2
v 0.0999999 2.7 0.2
v -0.1 2.7 5.96046e-008
v 0.0999999 2.7 5.96046e-008
v -0.1 2.7 -0.2
v -0.1 2.7 -0.4
v 0.0999999 2.7 -0.4
v 0.3 2.9 0.2
v 0.5 2.9 0.2
v 0.3 2.9 5.96046e-008
v 0.5 2.9 5.96046e-008
v -1.1 1.3 0.4
v -0.9 1.3 0.4
v -0.1 1.3 0.4
v 0.0999999 1.3 0.4
v -1.1 1.3 0.2
v -0.9 1.3 0.2
v -0.1 1.3 0.2
v 0.0999999 1.3 0.2
v -1.3 1.5 0.2
v -1.1 1.5 0.2
v 0.0999999 1.5 0.2
v 0.3 1.5 0.2
v -1.3 1.5 -0.2
v -1.1 1.5 -0.2
v 0.0999999 1.5 -0.2
v 0.3 1.5 -0.2
v -0.9 1.7 0.4
v -0.1 1.7 0.4
v -1.1 1.7 0.2
v -0.9 1.7 0.2
v -0.7 1.7 0.2
v -0.3 1.7 0.2
v -0.1 1.7 0.2
v 0.0999999 1.7 0.2
v -0.7 1.7 -0.2
v -0.3 1.7 -0.2
v -1.1 1.7 -0.4
v 0.0999999 1.7 -0.4
v 0.0999999 2.7 0.6
v 0.3 2.7 0.6
v 0.0999999 2.7 0.2
v 0.3 2.7 0.2
v 0.0999999 2.7 5.96046e-008
v 0.3 2.7 5.96046e-008
v 0.0999999 2.7 -0.6
v 0.3 2.7 -0.6
v -0.1 2.9 0.6
v 0.0999999 2.9 0.6
v -0.1 2.9 0.2
v 0.0999999 2.9 0.2
v -0.1 2.9 5.96046e-008
v 0.0999999 2.9 5.96046e-008
v -0.1 2.9 -0.6
v 0.0999999 2.9 -0.6
v -1.1 3.1 0.6
v -0.9 3.1 0.6
v -0.1 3.1 0.6
v -0.1 3.1 0.2
v 0.0999999 3.1 0.2
v -0.1 3.1 5.96046e-008
v 0.0999999 3.1 5.96046e-008
v -1.1 3.1 -0.6
v -0.9 3.1 -0.6
v -0.1 3.1 -0.6
v 0.0999999 3.3 0.2
v 0.5 3.3 0.2
v 0.0999999 3.3 5.96046e-008
v 0.5 3.3 5.96046e-008

# faces
f 3/1/1 2/1/1 1/1/1
f 4/1/1 2/1/1 3/1/1
f 6/3/1 4/3/1 3/3/1
f 6/3/1 5/3/1 4/3/1
f 7/3/1 5/3/1 6/3/1
f 8/6/1 7/6/1 6/6/1
f 9/6/1 7/6/1 8/6/1
f 14/1/1 11/1/1 10/1/1
f 15/1/1 11/1/1 14/1/1
f 16/5/1 13/5/1 12/5/1
f 17/5/1 13/5/1 16/5/1
f 19/6/1 15/6/1 14/6/1
f 20/6/1 18/6/1 17/6/1
f 21/6/1 19/6/1 14/6/1
f 22/6/1 19/6/1 21/6/1
f 24/6/1 18/6/1 20/6/1
f 25/6/1 24/6/1 23/6/1
f 26/6/1 18/6/1 24/6/1
f 26/6/1 24/6/1 25/6/1
f 29/2/1 28/2/1 27/2/1
f 30/2/1 28/2/1 29/2/1
f 31/1/1 30/1/1 29/1/1
f 32/1/1 30/1/1 31/1/1
f 35/6/1 34/6/1 33/6/1
f 36/6/1 34/6/1 35/6/1
f 39/6/1 38/6/1 37/6/1
f 40/6/1 38/6/1 39/6/1
f 41/1/1 40/1/1 39/1/1
f 42/6/1 38/6/1 40/6/1
f 42/1/1 40/1/1 41/1/1
f 43/6/1 38/6/1 42/6/1
f 46/6/1 45/6/1 44/6/1
f 47/6/1 45/6/1 46/6/1
f 50/1/1 49/1/1 48/1/1
f 51/1/1 49/1/1 50/1/1
f 54/2/1 53/2/1 52/2/1
f 55/2/1 53/2/1 54/2/1
f 56/2/1 53/2/1 55/2/1
f 57/2/1 53/2/1 56/2/1
f 60/4/1 59/4/1 58/4/1
f 61/4/1 59/4/1 60/4/1
f 62/1/2 63/1/2 64/1/2
f 64/1/2 63/1/2 65/1/2
f 66/6/2 67/6/2 68/6/2
f 68/6/2 67/6/2 69/6/2
f 70/6/2 71/6/2 72/6/2
f 72/6/2 71/6/2 73/6/2
f 74/6/2 75/6/2 76/6/2
f 76/6/2 75/6/2 77/6/2
f 76/1/2 77/1/2 78/1/2
f 77/6/2 75/6/2 79/6/2
f 78/1/2 77/1/2 79/1/2
f 79/6/2 75/6/2 80/6/2
f 80/6/2 75/6/2 81/6/2
f 78/6/2 79/6/2 82/6/2
f 79/6/2 80/6/2 82/6/2
f 82/6/2 80/6/2 83/6/2
f 83/6/2 80/6/2 84/6/2
f 80/2/2 81/2/2 85/2/2
f 84/6/2 80/6/2 85/6/2
f 85/2/2 81/2/2 86/2/2
f 87/2/2 88/2/2 91/2/2
f 91/2/2 88/2/2 92/2/2
f 89/2/2 90/2/2 93/2/2
f 93/2/2 90/2/2 94/2/2
f 95/1/2 96/1/2 99/1/2
f 99/1/2 96/1/2 100/1/2
f 97/5/2 98/5/2 101/5/2
f 101/5/2 98/5/2 102/5/2
f 99/6/2 100/6/2 104/6/2
f 102/6/2 103/6/2 105/6/2
f 99/6/2 104/6/2 106/6/2
f 106/6/2 104/6/2 107/6/2
f 105/6/2 103/6/2 109/6/2
f 108/6/2 109/6/2 110/6/2
f 109/6/2 103/6/2 111/6/2
f 110/6/2 109/6/2 111/6/2
f 112/2/2 113/2/2 116/2/2
f 116/2/2 113/2/2 117/2/2
f 114/2/2 115/2/2 118/2/2
f 118/2/2 115/2/2 119/2/2
f 120/1/2 121/1/2 122/1/2
f 122/1/2 121/1/2 123/1/2
f 122/3/2 123/3/2 125/3/2
f 123/3/2 124/3/2 125/3/2
f 125/3/2 124/3/2 126/3/2
f 125/6/2 126/6/2 127/6/2
f 127/6/2 126/6/2 128/6/2
f 129/2/2 130/2/2 131/2/2
f 131/2/2 130/2/2 132/2/2
f 132/2/2 130/2/2 133/2/2
f 133/2/2 130/2/2 134/2/2
f 132/4/2 133/4/2 135/4/2
f 135/4/2 133/4/2 136/4/2
f 137/4/2 138/4/2 139/4/2
f 139/4/2 138/4/2 140/4/2
f 144/2/3 142/2/3 141/2/3
f 144/1/3 143/1/3 142/1/3
f 145/1/3 143/1/3 144/1/3
f 146/2/3 144/2/3 141/2/3
f 146/2/3 145/2/3 144/2/3
f 147/2/3 145/2/3 146/2/3
f 148/2/3 146/2/3 141/2/3
f 149/2/3 146/2/3 148/2/3
f 150/2/3 148/2/3 141/2/3
f 151/2/3 148/2/3 150/2/3
f 155/1/3 153/1/3 152/1/3
f 156/6/3 154/6/3 153/6/3
f 156/1/3 153/1/3 155/1/3
f 157/6/3 154/6/3 156/6/3
f 158/6/3 154/6/3 157/6/3
f 159/6/3 154/6/3 158/6/3
f 160/6/3 154/6/3 159/6/3
f 161/6/3 154/6/3 160/6/3
f 166/6/3 157/6/3 156/6/3
f 166/1/3 158/1/3 157/1/3
f 167/1/3 158/1/3 166/1/3
f 168/6/3 159/6/3 158/6/3
f 168/1/3 158/1/3 167/1/3
f 169/1/3 160/1/3 159/1/3
f 169/6/3 159/6/3 168/6/3
f 170/6/3 162/6/3 161/6/3
f 170/1/3 160/1/3 169/1/3
f 170/6/3 161/6/3 160/6/3
f 171/6/3 164/6/3 163/6/3
f 172/6/3 164/6/3 171/6/3
f 173/1/3 165/1/3 164/1/3
f 173/6/3 164/6/3 172/6/3
f 174/1/3 165/1/3 173/1/3
f 175/6/3 167/6/3 166/6/3
f 175/6/3 166/6/3 156/6/3
f 176/1/3 169/1/3 168/1/3
f 176/6/3 167/6/3 175/6/3
f 176/1/3 168/1/3 167/1/3
f 177/1/3 169/1/3 176/1/3
f 178/6/3 170/6/3 169/6/3
f 178/1/3 169/1/3 177/1/3
f 179/6/3 162/6/3 170/6/3
f 179/6/3 170/6/3 178/6/3
f 180/6/3 175/6/3 156/6/3
f 180/1/3 177/1/3 176/1/3
f 180/1/3 176/1/3 175/1/3
f 181/1/3 177/1/3 180/1/3
f 182/6/3 178/6/3 177/6/3
f 182/1/3 179/1/3 178/1/3
f 183/6/3 162/6/3 179/6/3
f 183/1/3 179/1/3 182/1/3
f 184/6/3 162/6/3 183/6/3
f 185/1/3 172/1/3 171/1/3
f 186/6/3 173/6/3 172/6/3
f 186/1/3 172/1/3 185/1/3
f 186/6/3 174/6/3 173/6/3
f 187/6/3 174/6/3 186/6/3
f 188/6/3 174/6/3 187/6/3
f 190/6/3 181/6/3 180/6/3
f 190/6/3 180/6/3 156/6/3
f 191/1/3 177/1/3 181/1/3
f 191/6/3 181/6/3 190/6/3
f 192/6/3 182/6/3 177/6/3
f 192/1/3 177/1/3 191/1/3
f 192/6/3 183/6/3 182/6/3
f 193/1/3 184/1/3 183/1/3
f 193/6/3 183/6/3 192/6/3
f 194/6/3 162/6/3 184/6/3
f 194/1/3 184/1/3 193/1/3
f 195/6/3 162/6/3 194/6/3
f 196/6/3 186/6/3 185/6/3
f 196/6/3 187/6/3 186/6/3
f 197/1/3 188/1/3 187/1/3
f 197/6/3 187/6/3 196/6/3
f 198/1/3 188/1/3 197/1/3
f 199/1/3 190/1/3 189/1/3
f 200/6/3 193/6/3 192/6/3
f 200/1/3 190/1/3 199/1/3
f 200/6/3 191/6/3 190/6/3
f 200/6/3 194/6/3 193/6/3
f 200/6/3 192/6/3 191/6/3
f 201/6/3 194/6/3 200/6/3
f 206/1/3 203/1/3 202/1/3
f 207/3/3 204/3/3 203/3/3
f 207/1/3 203/1/3 206/1/3
f 208/6/3 205/6/3 204/6/3
f 208/3/3 204/3/3 207/3/3
f 209/6/3 205/6/3 208/6/3
f 210/6/3 205/6/3 209/6/3
f 214/6/3 211/6/3 210/6/3
f 214/6/3 210/6/3 209/6/3
f 215/6/3 211/6/3 214/6/3
f 218/6/3 217/6/3 216/6/3
f 219/6/3 217/6/3 218/6/3
f 220/5/3 213/5/3 212/5/3
f 221/5/3 213/5/3 220/5/3
f 229/6/3 223/6/3 222/6/3
f 230/6/3 223/6/3 229/6/3
f 231/6/3 223/6/3 230/6/3
f 233/4/3 225/4/3 224/4/3
f 234/4/3 225/4/3 233/4/3
f 236/1/3 227/1/3 226/1/3
f 237/3/3 228/3/3 227/3/3
f 237/1/3 227/1/3 236/1/3
f 238/6/3 229/6/3 228/6/3
f 238/3/3 228/3/3 237/3/3
f 238/6/3 230/6/3 229/6/3
f 239/6/3 230/6/3 238/6/3
f 240/4/3 235/4/3 234/4/3
f 240/4/3 234/4/3 233/4/3
f 240/4/3 233/4/3 232/4/3
f 241/4/3 235/4/3 240/4/3
f 242/4/3 235/4/3 241/4/3
f 243/4/3 235/4/3 242/4/3
f 246/2/3 245/2/3 244/2/3
f 247/2/3 245/2/3 246/2/3
f 248/2/4 249/2/4 250/2/4
f 250/2/4 249/2/4 251/2/4
f 252/1/4 253/1/4 254/1/4
f 254/1/4 253/1/4 255/1/4
f 256/4/4 257/4/4 261/4/4
f 261/4/4 257/4/4 262/4/4
f 258/1/4 259/1/4 264/1/4
f 264/1/4 259/1/4 265/1/4
f 262/4/4 263/4/4 266/4/4
f 260/4/4 261/4/4 266/4/4
f 261/4/4 262/4/4 266/4/4
f 266/4/4 263/4/4 267/4/4
f 267/4/4 263/4/4 268/4/4
f 268/4/4 263/4/4 269/4/4
f 270/3/4 271/3/4 274/3/4
f 271/6/4 272/6/4 275/6/4
f 274/3/4 271/3/4 275/3/4
f 275/6/4 272/6/4 276/6/4
f 277/6/4 278/6/4 279/6/4
f 279/6/4 278/6/4 280/6/4
f 273/5/4 274/5/4 281/5/4
f 281/5/4 274/5/4 282/5/4
f 282/3/4 283/3/4 285/3/4
f 283/6/4 284/6/4 286/6/4
f 285/3/4 283/3/4 286/3/4
f 286/6/4 284/6/4 287/6/4
f 290/6/4 291/6/4 292/6/4
f 292/6/4 291/6/4 293/6/4
f 288/6/4 289/6/4 294/6/4
f 294/6/4 289/6/4 295/6/4
f 296/2/4 297/2/4 299/2/4
f 297/1/4 298/1/4 299/1/4
f 299/1/4 298/1/4 300/1/4
f 296/2/4 299/2/4 301/2/4
f 299/2/4 300/2/4 301/2/4
f 301/2/4 300/2/4 302/2/4
f 296/2/4 301/2/4 303/2/4
f 303/2/4 301/2/4 304/2/4
f 296/2/4 303/2/4 305/2/4
f 305/2/4 303/2/4 306/2/4
f 312/1/5 308/1/5 307/1/5
f 313/1/5 308/1/5 312/1/5
f 314/1/5 310/1/5 309/1/5
f 315/1/5 310/1/5 314/1/5
f 317/1/5 313/1/5 312/1/5
f 317/1/5 312/1/5 311/1/5
f 318/1/5 313/1/5 317/1/5
f 319/5/5 314/5/5 313/5/5
f 319/1/5 313/1/5 318/1/5
f 320/1/5 316/1/5 315/1/5
f 320/5/5 314/5/5 319/5/5
f 320/1/5 315/1/5 314/1/5
f 321/1/5 316/1/5 320/1/5
f 322/1/5 316/1/5 321/1/5
f 323/5/5 319/5/5 318/5/5
f 323/5/5 321/5/5 320/5/5
f 323/5/5 320/5/5 319/5/5
f 324/5/5 321/5/5 323/5/5
f 327/6/5 326/6/5 325/6/5
f 328/6/5 326/6/5 327/6/5
f 333/3/5 330/3/5 329/3/5
f 334/3/5 330/3/5 333/3/5
f 335/3/5 332/3/5 331/3/5
f 336/3/5 332/3/5 335/3/5
f 337/6/5 335/6/5 334/6/5
f 338/6/5 335/6/5 337/6/5
f 343/6/5 340/6/5 339/6/5
f 343/1/5 341/1/5 340/1/5
f 344/6/5 342/6/5 341/6/5
f 344/1/5 341/1/5 343/1/5
f 345/6/5 343/6/5 339/6/5
f 346/6/5 342/6/5 344/6/5
f 347/6/5 345/6/5 339/6/5
f 347/6/5 346/6/5 345/6/5
f 348/6/5 342/6/5 346/6/5
f 348/6/5 346/6/5 347/6/5
f 351/2/5 350/2/5 349/2/5
f 352/2/5 350/2/5 351/2/5
f 353/2/5 350/2/5 352/2/5
f 354/2/5 350/2/5 353/2/5
f 355/2/5 350/2/5 354/2/5
f 356/2/5 351/2/5 349/2/5
f 357/2/5 356/2/5 349/2/5
f 359/2/5 350/2/5 355/2/5
f 360/2/5 358/2/5 357/2/5
f 360/2/5 359/2/5 358/2/5
f 360/2/5 357/2/5 349/2/5
f 361/2/5 350/2/5 359/2/5
f 361/2/5 359/2/5 360/2/5
f 364/2/5 363/2/5 362/2/5
f 365/2/5 363/2/5 364/2/5
f 366/4/5 365/4/5 364/4/5
f 367/4/5 365/4/5 366/4/5
f 368/2/5 367/2/5 366/2/5
f 369/2/5 367/2/5 368/2/5
f 370/2/5 367/2/5 369/2/5
f 373/4/5 372/4/5 371/4/5
f 374/4/5 372/4/5 373/4/5
f 375/6/6 376/6/6 379/6/6
f 379/6/6 376/6/6 380/6/6
f 377/6/6 378/6/6 381/6/6
f 381/6/6 378/6/6 382/6/6
f 383/6/6 384/6/6 387/6/6
f 387/6/6 384/6/6 388/6/6
f 385/6/6 386/6/6 389/6/6
f 389/6/6 386/6/6 390/6/6
f 391/6/6 392/6/6 394/6/6
f 394/6/6 392/6/6 395/6/6
f 395/6/6 392/6/6 396/6/6
f 396/6/6 392/6/6 397/6/6
f 393/6/6 394/6/6 399/6/6
f 394/6/6 395/6/6 399/6/6
f 397/6/6 398/6/6 400/6/6
f 396/6/6 397/6/6 400/6/6
f 393/6/6 399/6/6 401/6/6
f 399/6/6 400/6/6 401/6/6
f 400/6/6 398/6/6 402/6/6
f 401/6/6 400/6/6 402/6/6
f 403/2/6 404/2/6 405/2/6
f 405/2/6 404/2/6 406/2/6
f 407/2/6 408/2/6 409/2/6
f 409/2/6 408/2/6 410/2/6
f 411/2/6 412/2/6 413/2/6
f 413/2/6 412/2/6 414/2/6
f 415/2/6 416/2/6 417/2/6
f 417/2/6 416/2/6 418/2/6
f 420/2/6 421/2/6 422/2/6
f 420/2/6 422/2/6 424/2/6
f 422/4/6 423/4/6 424/4/6
f 424/4/6 423/4/6 425/4/6
f 419/1/6 420/1/6 426/1/6
f 420/2/6 424/2/6 427/2/6
f 426/1/6 420/1/6 427/1/6
f 427/2/6 424/2/6 428/2/6
f 429/4/6 430/4/6 431/4/6
f 431/4/6 430/4/6 432/4/6
