# MagicaVoxel @ Ephtracy

# group
o 

# material
mtllib arrow.mtl
usemtl palette

# normals
vn -1 0 0
vn 1 0 0
vn 0 0 1
vn 0 0 -1
vn 0 -1 0
vn 0 1 0

# texcoords
vt 0.783203 0.5
vt 0.947266 0.5
vt 0.978516 0.5
vt 0.982422 0.5

# verts
v -2.3 0.2 0.1
v -2.3 0.2 -0.1
v -2.3 0.5 0.2
v -2.3 0.5 0.1
v -2.3 0.5 -0.1
v -2.3 0.5 -0.2
v -2.3 0.6 0.5
v -2.3 0.6 0.2
v -2.3 0.6 -0.2
v -2.3 0.6 -0.5
v -2.3 0.8 0.5
v -2.3 0.8 0.2
v -2.3 0.8 -0.2
v -2.3 0.8 -0.5
v -2.3 0.9 0.2
v -2.3 0.9 0.1
v -2.3 0.9 -0.1
v -2.3 0.9 -0.2
v -2.3 1.2 0.1
v -2.3 1.2 -0.1
v 0.5 0.3 0.4
v 0.5 0.3 -0.4
v 0.5 0.5 0.2
v 0.5 0.5 -0.2
v 0.5 0.9 0.2
v 0.5 0.9 -0.2
v 0.5 1.1 0.4
v 0.5 1.1 -0.4
v -2 0.2 0.1
v -2 0.2 -0.1
v -2 0.3 0.1
v -2 0.3 -0.1
v -2 0.6 0.5
v -2 0.6 0.4
v -2 0.6 -0.4
v -2 0.6 -0.5
v -2 0.8 0.5
v -2 0.8 0.4
v -2 0.8 -0.4
v -2 0.8 -0.5
v -2 1.1 0.1
v -2 1.1 -0.1
v -2 1.2 0.1
v -2 1.2 -0.1
v -1.8 0.3 0.1
v -1.8 0.3 -0.1
v -1.8 0.4 0.1
v -1.8 0.4 -0.1
v -1.8 0.6 0.4
v -1.8 0.6 0.3
v -1.8 0.6 -0.3
v -1.8 0.6 -0.4
v -1.8 0.8 0.4
v -1.8 0.8 0.3
v -1.8 0.8 -0.3
v -1.8 0.8 -0.4
v -1.8 1 0.1
v -1.8 1 -0.1
v -1.8 1.1 0.1
v -1.8 1.1 -0.1
v -1.6 0.4 0.1
v -1.6 0.4 -0.1
v -1.6 0.5 0.1
v -1.6 0.5 -0.1
v -1.6 0.6 0.3
v -1.6 0.6 0.2
v -1.6 0.6 -0.2
v -1.6 0.6 -0.3
v -1.6 0.8 0.3
v -1.6 0.8 0.2
v -1.6 0.8 -0.2
v -1.6 0.8 -0.3
v -1.6 0.9 0.1
v -1.6 0.9 -0.1
v -1.6 1 0.1
v -1.6 1 -0.1
v 0.7 0.3 0.4
v 0.7 0.3 -0.4
v 0.7 0.4 0.3
v 0.7 0.4 -0.3
v 0.7 1 0.3
v 0.7 1 -0.3
v 0.7 1.1 0.4
v 0.7 1.1 -0.4
v 0.9 0.4 0.3
v 0.9 0.4 -0.3
v 0.9 0.5 0.2
v 0.9 0.5 -0.2
v 0.9 0.9 0.2
v 0.9 0.9 -0.2
v 0.9 1 0.3
v 0.9 1 -0.3
v 1.1 0.5 0.2
v 1.1 0.5 -0.2
v 1.1 0.6 0.1
v 1.1 0.6 -0.1
v 1.1 0.8 0.1
v 1.1 0.8 -0.1
v 1.1 0.9 0.2
v 1.1 0.9 -0.2
v 1.3 0.6 0.1
v 1.3 0.6 -0.1
v 1.3 0.8 0.1
v 1.3 0.8 -0.1
v -2.3 0.6 0.5
v -2.3 0.8 0.5
v -2 0.6 0.5
v -2 0.8 0.5
v -2 0.6 0.4
v -2 0.8 0.4
v -1.8 0.6 0.4
v -1.8 0.8 0.4
v 0.5 0.3 0.4
v 0.5 1.1 0.4
v 0.7 0.3 0.4
v 0.7 1.1 0.4
v -1.8 0.6 0.3
v -1.8 0.8 0.3
v -1.6 0.6 0.3
v -1.6 0.8 0.3
v 0.7 0.4 0.3
v 0.7 1 0.3
v 0.9 0.4 0.3
v 0.9 1 0.3
v -2.3 0.5 0.2
v -2.3 0.6 0.2
v -2.3 0.8 0.2
v -2.3 0.9 0.2
v -1.6 0.6 0.2
v -1.6 0.8 0.2
v 0.5 0.5 0.2
v 0.5 0.9 0.2
v 0.9 0.5 0.2
v 0.9 0.9 0.2
v 1.1 0.5 0.2
v 1.1 0.9 0.2
v -2.3 0.2 0.1
v -2.3 0.5 0.1
v -2.3 0.9 0.1
v -2.3 1.2 0.1
v -2 0.2 0.1
v -2 0.3 0.1
v -2 1.1 0.1
v -2 1.2 0.1
v -1.8 0.3 0.1
v -1.8 0.4 0.1
v -1.8 1 0.1
v -1.8 1.1 0.1
v -1.6 0.4 0.1
v -1.6 0.5 0.1
v -1.6 0.9 0.1
v -1.6 1 0.1
v 1.1 0.6 0.1
v 1.1 0.8 0.1
v 1.3 0.6 0.1
v 1.3 0.8 0.1
v -2.3 0.2 -0.1
v -2.3 0.5 -0.1
v -2.3 0.9 -0.1
v -2.3 1.2 -0.1
v -2 0.2 -0.1
v -2 0.3 -0.1
v -2 1.1 -0.1
v -2 1.2 -0.1
v -1.8 0.3 -0.1
v -1.8 0.4 -0.1
v -1.8 1 -0.1
v -1.8 1.1 -0.1
v -1.6 0.4 -0.1
v -1.6 0.5 -0.1
v -1.6 0.9 -0.1
v -1.6 1 -0.1
v 1.1 0.6 -0.1
v 1.1 0.8 -0.1
v 1.3 0.6 -0.1
v 1.3 0.8 -0.1
v -2.3 0.5 -0.2
v -2.3 0.6 -0.2
v -2.3 0.8 -0.2
v -2.3 0.9 -0.2
v -1.6 0.6 -0.2
v -1.6 0.8 -0.2
v 0.5 0.5 -0.2
v 0.5 0.9 -0.2
v 0.9 0.5 -0.2
v 0.9 0.9 -0.2
v 1.1 0.5 -0.2
v 1.1 0.9 -0.2
v -1.8 0.6 -0.3
v -1.8 0.8 -0.3
v -1.6 0.6 -0.3
v -1.6 0.8 -0.3
v 0.7 0.4 -0.3
v 0.7 1 -0.3
v 0.9 0.4 -0.3
v 0.9 1 -0.3
v -2 0.6 -0.4
v -2 0.8 -0.4
v -1.8 0.6 -0.4
v -1.8 0.8 -0.4
v 0.5 0.3 -0.4
v 0.5 1.1 -0.4
v 0.7 0.3 -0.4
v 0.7 1.1 -0.4
v -2.3 0.6 -0.5
v -2.3 0.8 -0.5
v -2 0.6 -0.5
v -2 0.8 -0.5
v -2.3 0.2 0.1
v -2 0.2 0.1
v -2.3 0.2 -0.1
v -2 0.2 -0.1
v 0.5 0.3 0.4
v 0.7 0.3 0.4
v -2 0.3 0.1
v -1.8 0.3 0.1
v -2 0.3 -0.1
v -1.8 0.3 -0.1
v 0.5 0.3 -0.4
v 0.7 0.3 -0.4
v 0.7 0.4 0.3
v 0.9 0.4 0.3
v -1.8 0.4 0.1
v -1.6 0.4 0.1
v -1.8 0.4 -0.1
v -1.6 0.4 -0.1
v 0.7 0.4 -0.3
v 0.9 0.4 -0.3
v -2.3 0.5 0.2
v 0.5 0.5 0.2
v 0.9 0.5 0.2
v 1.1 0.5 0.2
v -2.3 0.5 0.1
v -1.6 0.5 0.1
v -2.3 0.5 -0.1
v -1.6 0.5 -0.1
v -2.3 0.5 -0.2
v 0.5 0.5 -0.2
v 0.9 0.5 -0.2
v 1.1 0.5 -0.2
v -2.3 0.6 0.5
v -2 0.6 0.5
v -2 0.6 0.4
v -1.8 0.6 0.4
v -1.8 0.6 0.3
v -1.6 0.6 0.3
v -2.3 0.6 0.2
v -1.6 0.6 0.2
v 1.1 0.6 0.1
v 1.3 0.6 0.1
v 1.1 0.6 -0.1
v 1.3 0.6 -0.1
v -2.3 0.6 -0.2
v -1.6 0.6 -0.2
v -1.8 0.6 -0.3
v -1.6 0.6 -0.3
v -2 0.6 -0.4
v -1.8 0.6 -0.4
v -2.3 0.6 -0.5
v -2 0.6 -0.5
v -2.3 0.8 0.5
v -2 0.8 0.5
v -2 0.8 0.4
v -1.8 0.8 0.4
v -1.8 0.8 0.3
v -1.6 0.8 0.3
v -2.3 0.8 0.2
v -1.6 0.8 0.2
v 1.1 0.8 0.1
v 1.3 0.8 0.1
v 1.1 0.8 -0.1
v 1.3 0.8 -0.1
v -2.3 0.8 -0.2
v -1.6 0.8 -0.2
v -1.8 0.8 -0.3
v -1.6 0.8 -0.3
v -2 0.8 -0.4
v -1.8 0.8 -0.4
v -2.3 0.8 -0.5
v -2 0.8 -0.5
v -2.3 0.9 0.2
v 0.5 0.9 0.2
v 0.9 0.9 0.2
v 1.1 0.9 0.2
v -2.3 0.9 0.1
v -1.6 0.9 0.1
v -2.3 0.9 -0.1
v -1.6 0.9 -0.1
v -2.3 0.9 -0.2
v 0.5 0.9 -0.2
v 0.9 0.9 -0.2
v 1.1 0.9 -0.2
v 0.7 1 0.3
v 0.9 1 0.3
v -1.8 1 0.1
v -1.6 1 0.1
v -1.8 1 -0.1
v -1.6 1 -0.1
v 0.7 1 -0.3
v 0.9 1 -0.3
v 0.5 1.1 0.4
v 0.7 1.1 0.4
v -2 1.1 0.1
v -1.8 1.1 0.1
v -2 1.1 -0.1
v -1.8 1.1 -0.1
v 0.5 1.1 -0.4
v 0.7 1.1 -0.4
v -2.3 1.2 0.1
v -2 1.2 0.1
v -2.3 1.2 -0.1
v -2 1.2 -0.1

# faces
f 4/1/1 2/1/1 1/1/1
f 5/1/1 2/1/1 4/1/1
f 8/2/1 4/2/1 3/2/1
f 8/2/1 6/2/1 5/2/1
f 8/2/1 5/2/1 4/2/1
f 9/2/1 6/2/1 8/2/1
f 11/1/1 8/1/1 7/1/1
f 12/2/1 9/2/1 8/2/1
f 12/1/1 8/1/1 11/1/1
f 13/1/1 10/1/1 9/1/1
f 13/2/1 9/2/1 12/2/1
f 14/1/1 10/1/1 13/1/1
f 15/2/1 13/2/1 12/2/1
f 16/2/1 13/2/1 15/2/1
f 17/2/1 13/2/1 16/2/1
f 18/2/1 13/2/1 17/2/1
f 19/1/1 17/1/1 16/1/1
f 20/1/1 17/1/1 19/1/1
f 23/3/1 22/3/1 21/3/1
f 24/3/1 22/3/1 23/3/1
f 25/3/1 23/3/1 21/3/1
f 26/3/1 22/3/1 24/3/1
f 27/3/1 25/3/1 21/3/1
f 27/3/1 26/3/1 25/3/1
f 28/3/1 22/3/1 26/3/1
f 28/3/1 26/3/1 27/3/1
f 29/1/2 30/1/2 31/1/2
f 31/1/2 30/1/2 32/1/2
f 33/1/2 34/1/2 37/1/2
f 37/1/2 34/1/2 38/1/2
f 35/1/2 36/1/2 39/1/2
f 39/1/2 36/1/2 40/1/2
f 41/1/2 42/1/2 43/1/2
f 43/1/2 42/1/2 44/1/2
f 45/1/2 46/1/2 47/1/2
f 47/1/2 46/1/2 48/1/2
f 49/1/2 50/1/2 53/1/2
f 53/1/2 50/1/2 54/1/2
f 51/1/2 52/1/2 55/1/2
f 55/1/2 52/1/2 56/1/2
f 57/1/2 58/1/2 59/1/2
f 59/1/2 58/1/2 60/1/2
f 61/1/2 62/1/2 63/1/2
f 63/1/2 62/1/2 64/1/2
f 65/1/2 66/1/2 69/1/2
f 69/1/2 66/1/2 70/1/2
f 67/1/2 68/1/2 71/1/2
f 71/1/2 68/1/2 72/1/2
f 73/1/2 74/1/2 75/1/2
f 75/1/2 74/1/2 76/1/2
f 77/3/2 78/3/2 79/3/2
f 79/3/2 78/3/2 80/3/2
f 77/3/2 79/3/2 81/3/2
f 80/3/2 78/3/2 82/3/2
f 77/3/2 81/3/2 83/3/2
f 81/3/2 82/3/2 83/3/2
f 82/3/2 78/3/2 84/3/2
f 83/3/2 82/3/2 84/3/2
f 85/3/2 86/3/2 87/3/2
f 87/3/2 86/3/2 88/3/2
f 85/3/2 87/3/2 89/3/2
f 88/3/2 86/3/2 90/3/2
f 85/3/2 89/3/2 91/3/2
f 89/3/2 90/3/2 91/3/2
f 90/3/2 86/3/2 92/3/2
f 91/3/2 90/3/2 92/3/2
f 93/3/2 94/3/2 95/3/2
f 95/3/2 94/3/2 96/3/2
f 93/3/2 95/3/2 97/3/2
f 96/3/2 94/3/2 98/3/2
f 93/3/2 97/3/2 99/3/2
f 97/3/2 98/3/2 99/3/2
f 98/3/2 94/3/2 100/3/2
f 99/3/2 98/3/2 100/3/2
f 101/4/2 102/4/2 103/4/2
f 103/4/2 102/4/2 104/4/2
f 107/1/3 106/1/3 105/1/3
f 108/1/3 106/1/3 107/1/3
f 111/1/3 110/1/3 109/1/3
f 112/1/3 110/1/3 111/1/3
f 115/3/3 114/3/3 113/3/3
f 116/3/3 114/3/3 115/3/3
f 119/1/3 118/1/3 117/1/3
f 120/1/3 118/1/3 119/1/3
f 123/3/3 122/3/3 121/3/3
f 124/3/3 122/3/3 123/3/3
f 129/2/3 126/2/3 125/2/3
f 130/2/3 128/2/3 127/2/3
f 131/2/3 129/2/3 125/2/3
f 131/2/3 130/2/3 129/2/3
f 132/2/3 128/2/3 130/2/3
f 132/2/3 130/2/3 131/2/3
f 135/3/3 134/3/3 133/3/3
f 136/3/3 134/3/3 135/3/3
f 141/1/3 138/1/3 137/1/3
f 142/1/3 138/1/3 141/1/3
f 143/1/3 140/1/3 139/1/3
f 144/1/3 140/1/3 143/1/3
f 145/1/3 138/1/3 142/1/3
f 146/1/3 138/1/3 145/1/3
f 147/1/3 143/1/3 139/1/3
f 148/1/3 143/1/3 147/1/3
f 149/1/3 138/1/3 146/1/3
f 150/1/3 138/1/3 149/1/3
f 151/1/3 147/1/3 139/1/3
f 152/1/3 147/1/3 151/1/3
f 155/4/3 154/4/3 153/4/3
f 156/4/3 154/4/3 155/4/3
f 157/1/4 158/1/4 161/1/4
f 161/1/4 158/1/4 162/1/4
f 159/1/4 160/1/4 163/1/4
f 163/1/4 160/1/4 164/1/4
f 162/1/4 158/1/4 165/1/4
f 165/1/4 158/1/4 166/1/4
f 159/1/4 163/1/4 167/1/4
f 167/1/4 163/1/4 168/1/4
f 166/1/4 158/1/4 169/1/4
f 169/1/4 158/1/4 170/1/4
f 159/1/4 167/1/4 171/1/4
f 171/1/4 167/1/4 172/1/4
f 173/4/4 174/4/4 175/4/4
f 175/4/4 174/4/4 176/4/4
f 177/2/4 178/2/4 181/2/4
f 179/2/4 180/2/4 182/2/4
f 177/2/4 181/2/4 183/2/4
f 181/2/4 182/2/4 183/2/4
f 182/2/4 180/2/4 184/2/4
f 183/2/4 182/2/4 184/2/4
f 185/3/4 186/3/4 187/3/4
f 187/3/4 186/3/4 188/3/4
f 189/1/4 190/1/4 191/1/4
f 191/1/4 190/1/4 192/1/4
f 193/3/4 194/3/4 195/3/4
f 195/3/4 194/3/4 196/3/4
f 197/1/4 198/1/4 199/1/4
f 199/1/4 198/1/4 200/1/4
f 201/3/4 202/3/4 203/3/4
f 203/3/4 202/3/4 204/3/4
f 205/1/4 206/1/4 207/1/4
f 207/1/4 206/1/4 208/1/4
f 211/1/5 210/1/5 209/1/5
f 212/1/5 210/1/5 211/1/5
f 217/1/5 216/1/5 215/1/5
f 218/1/5 216/1/5 217/1/5
f 219/3/5 214/3/5 213/3/5
f 220/3/5 214/3/5 219/3/5
f 225/1/5 224/1/5 223/1/5
f 226/1/5 224/1/5 225/1/5
f 227/3/5 222/3/5 221/3/5
f 228/3/5 222/3/5 227/3/5
f 233/2/5 230/2/5 229/2/5
f 234/2/5 230/2/5 233/2/5
f 236/2/5 230/2/5 234/2/5
f 237/2/5 236/2/5 235/2/5
f 238/2/5 230/2/5 236/2/5
f 238/2/5 236/2/5 237/2/5
f 239/3/5 232/3/5 231/3/5
f 240/3/5 232/3/5 239/3/5
f 243/1/5 242/1/5 241/1/5
f 245/1/5 244/1/5 243/1/5
f 247/1/5 243/1/5 241/1/5
f 247/1/5 246/1/5 245/1/5
f 247/1/5 245/1/5 243/1/5
f 248/1/5 246/1/5 247/1/5
f 251/4/5 250/4/5 249/4/5
f 252/4/5 250/4/5 251/4/5
f 255/1/5 254/1/5 253/1/5
f 256/1/5 254/1/5 255/1/5
f 257/1/5 255/1/5 253/1/5
f 258/1/5 255/1/5 257/1/5
f 259/1/5 257/1/5 253/1/5
f 260/1/5 257/1/5 259/1/5
f 261/1/6 262/1/6 263/1/6
f 263/1/6 264/1/6 265/1/6
f 261/1/6 263/1/6 267/1/6
f 265/1/6 266/1/6 267/1/6
f 263/1/6 265/1/6 267/1/6
f 267/1/6 266/1/6 268/1/6
f 269/4/6 270/4/6 271/4/6
f 271/4/6 270/4/6 272/4/6
f 273/1/6 274/1/6 275/1/6
f 275/1/6 274/1/6 276/1/6
f 273/1/6 275/1/6 277/1/6
f 277/1/6 275/1/6 278/1/6
f 273/1/6 277/1/6 279/1/6
f 279/1/6 277/1/6 280/1/6
f 281/2/6 282/2/6 285/2/6
f 285/2/6 282/2/6 286/2/6
f 286/2/6 282/2/6 288/2/6
f 287/2/6 288/2/6 289/2/6
f 288/2/6 282/2/6 290/2/6
f 289/2/6 288/2/6 290/2/6
f 283/3/6 284/3/6 291/3/6
f 291/3/6 284/3/6 292/3/6
f 295/1/6 296/1/6 297/1/6
f 297/1/6 296/1/6 298/1/6
f 293/3/6 294/3/6 299/3/6
f 299/3/6 294/3/6 300/3/6
f 303/1/6 304/1/6 305/1/6
f 305/1/6 304/1/6 306/1/6
f 301/3/6 302/3/6 307/3/6
f 307/3/6 302/3/6 308/3/6
f 309/1/6 310/1/6 311/1/6
f 311/1/6 310/1/6 312/1/6
