# MagicaVoxel @ Ephtracy

# group
o 

# material
mtllib left hand.mtl
usemtl palette

# normals
vn -1 0 0
vn 1 0 0
vn 0 0 1
vn 0 0 -1
vn 0 -1 0
vn 0 1 0

# texcoords
vt 0.876953 0.5
vt 0.888672 0.5
vt 0.892578 0.5

# verts
v -0.3 0.8 -0.6
v -0.3 0.8 -1
v -0.3 1.3 -0.6
v -0.3 1.3 -1
v -0.2 0.7 -0.6
v -0.2 0.7 -1
v -0.2 0.8 -0.6
v -0.2 0.8 -1
v -0.1 0.1 0
v -0.1 0.1 -0.3
v -0.1 0.1 -0.4
v -0.1 0.1 -1
v -0.1 0.5 0
v -0.1 0.5 -0.3
v -0.1 0.5 -0.4
v -0.1 0.5 -0.6
v -0.1 0.7 -0.6
v -0.1 0.7 -1
v -0.2 1.2 -0.6
v -0.2 1.2 -1
v -0.2 1.3 -0.6
v -0.2 1.3 -1
v -0.1 1.1 -0.6
v -0.1 1.1 -1
v -0.1 1.2 -0.6
v -0.1 1.2 -1
v 0 1 -0.6
v 0 1 -1
v 0 1.1 -0.6
v 0 1.1 -1
v 0.1 0.9 -0.6
v 0.1 0.9 -1
v 0.1 1 -0.6
v 0.1 1 -1
v 0.2 0.8 -0.6
v 0.2 0.8 -1
v 0.2 0.9 -0.6
v 0.2 0.9 -1
v 0.3 0.1 0
v 0.3 0.1 -0.3
v 0.3 0.1 -0.4
v 0.3 0.1 -1
v 0.3 0.5 0
v 0.3 0.5 -0.3
v 0.3 0.5 -0.4
v 0.3 0.5 -0.6
v 0.3 0.8 -0.6
v 0.3 0.8 -1
v -0.1 0.1 0
v -0.1 0.5 0
v 0.3 0.1 0
v 0.3 0.5 0
v -0.3 0.8 -0.6
v -0.3 1.3 -0.6
v -0.2 0.7 -0.6
v -0.2 0.8 -0.6
v -0.2 1.2 -0.6
v -0.2 1.3 -0.6
v -0.1 0.5 -0.6
v -0.1 0.7 -0.6
v -0.1 1.1 -0.6
v -0.1 1.2 -0.6
v 0 1 -0.6
v 0 1.1 -0.6
v 0.1 0.9 -0.6
v 0.1 1 -0.6
v 0.2 0.8 -0.6
v 0.2 0.9 -0.6
v 0.3 0.5 -0.6
v 0.3 0.8 -0.6
v -0.3 0.8 -1
v -0.3 1.3 -1
v -0.2 0.7 -1
v -0.2 0.8 -1
v -0.2 1.2 -1
v -0.2 1.3 -1
v -0.1 0.1 -1
v -0.1 0.7 -1
v -0.1 1.1 -1
v -0.1 1.2 -1
v 0 1 -1
v 0 1.1 -1
v 0.1 0.9 -1
v 0.1 1 -1
v 0.2 0.8 -1
v 0.2 0.9 -1
v 0.3 0.1 -1
v 0.3 0.8 -1
v -0.1 0.1 0
v 0.3 0.1 0
v -0.1 0.1 -0.3
v 0.3 0.1 -0.3
v -0.1 0.1 -0.4
v 0.3 0.1 -0.4
v -0.1 0.1 -1
v 0.3 0.1 -1
v -0.2 0.7 -0.6
v -0.1 0.7 -0.6
v -0.2 0.7 -1
v -0.1 0.7 -1
v -0.3 0.8 -0.6
v -0.2 0.8 -0.6
v -0.3 0.8 -1
v -0.2 0.8 -1
v -0.1 0.5 0
v 0.3 0.5 0
v -0.1 0.5 -0.3
v 0.3 0.5 -0.3
v -0.1 0.5 -0.4
v 0.3 0.5 -0.4
v -0.1 0.5 -0.6
v 0.3 0.5 -0.6
v 0.2 0.8 -0.6
v 0.3 0.8 -0.6
v 0.2 0.8 -1
v 0.3 0.8 -1
v 0.1 0.9 -0.6
v 0.2 0.9 -0.6
v 0.1 0.9 -1
v 0.2 0.9 -1
v 0 1 -0.6
v 0.1 1 -0.6
v 0 1 -1
v 0.1 1 -1
v -0.1 1.1 -0.6
v 0 1.1 -0.6
v -0.1 1.1 -1
v 0 1.1 -1
v -0.2 1.2 -0.6
v -0.1 1.2 -0.6
v -0.2 1.2 -1
v -0.1 1.2 -1
v -0.3 1.3 -0.6
v -0.2 1.3 -0.6
v -0.3 1.3 -1
v -0.2 1.3 -1

# faces
f 3/1/1 2/1/1 1/1/1
f 4/1/1 2/1/1 3/1/1
f 7/1/1 6/1/1 5/1/1
f 8/1/1 6/1/1 7/1/1
f 13/3/1 10/3/1 9/3/1
f 14/2/1 11/2/1 10/2/1
f 14/3/1 10/3/1 13/3/1
f 15/1/1 12/1/1 11/1/1
f 15/2/1 11/2/1 14/2/1
f 16/1/1 12/1/1 15/1/1
f 17/1/1 12/1/1 16/1/1
f 18/1/1 12/1/1 17/1/1
f 19/1/2 20/1/2 21/1/2
f 21/1/2 20/1/2 22/1/2
f 23/1/2 24/1/2 25/1/2
f 25/1/2 24/1/2 26/1/2
f 27/1/2 28/1/2 29/1/2
f 29/1/2 28/1/2 30/1/2
f 31/1/2 32/1/2 33/1/2
f 33/1/2 32/1/2 34/1/2
f 35/1/2 36/1/2 37/1/2
f 37/1/2 36/1/2 38/1/2
f 39/3/2 40/3/2 43/3/2
f 40/2/2 41/2/2 44/2/2
f 43/3/2 40/3/2 44/3/2
f 41/1/2 42/1/2 45/1/2
f 44/2/2 41/2/2 45/2/2
f 45/1/2 42/1/2 46/1/2
f 46/1/2 42/1/2 47/1/2
f 47/1/2 42/1/2 48/1/2
f 51/3/3 50/3/3 49/3/3
f 52/3/3 50/3/3 51/3/3
f 56/1/3 54/1/3 53/1/3
f 57/1/3 54/1/3 56/1/3
f 58/1/3 54/1/3 57/1/3
f 60/1/3 56/1/3 55/1/3
f 60/1/3 57/1/3 56/1/3
f 61/1/3 57/1/3 60/1/3
f 62/1/3 57/1/3 61/1/3
f 63/1/3 60/1/3 59/1/3
f 63/1/3 61/1/3 60/1/3
f 64/1/3 61/1/3 63/1/3
f 65/1/3 63/1/3 59/1/3
f 66/1/3 63/1/3 65/1/3
f 67/1/3 65/1/3 59/1/3
f 68/1/3 65/1/3 67/1/3
f 69/1/3 67/1/3 59/1/3
f 70/1/3 67/1/3 69/1/3
f 71/1/4 72/1/4 74/1/4
f 74/1/4 72/1/4 75/1/4
f 75/1/4 72/1/4 76/1/4
f 73/1/4 74/1/4 78/1/4
f 74/1/4 75/1/4 78/1/4
f 78/1/4 75/1/4 79/1/4
f 79/1/4 75/1/4 80/1/4
f 77/1/4 78/1/4 81/1/4
f 78/1/4 79/1/4 81/1/4
f 81/1/4 79/1/4 82/1/4
f 77/1/4 81/1/4 83/1/4
f 83/1/4 81/1/4 84/1/4
f 77/1/4 83/1/4 85/1/4
f 85/1/4 83/1/4 86/1/4
f 77/1/4 85/1/4 87/1/4
f 87/1/4 85/1/4 88/1/4
f 91/3/5 90/3/5 89/3/5
f 92/3/5 90/3/5 91/3/5
f 93/2/5 92/2/5 91/2/5
f 94/2/5 92/2/5 93/2/5
f 95/1/5 94/1/5 93/1/5
f 96/1/5 94/1/5 95/1/5
f 99/1/5 98/1/5 97/1/5
f 100/1/5 98/1/5 99/1/5
f 103/1/5 102/1/5 101/1/5
f 104/1/5 102/1/5 103/1/5
f 105/3/6 106/3/6 107/3/6
f 107/3/6 106/3/6 108/3/6
f 107/2/6 108/2/6 109/2/6
f 109/2/6 108/2/6 110/2/6
f 109/1/6 110/1/6 111/1/6
f 111/1/6 110/1/6 112/1/6
f 113/1/6 114/1/6 115/1/6
f 115/1/6 114/1/6 116/1/6
f 117/1/6 118/1/6 119/1/6
f 119/1/6 118/1/6 120/1/6
f 121/1/6 122/1/6 123/1/6
f 123/1/6 122/1/6 124/1/6
f 125/1/6 126/1/6 127/1/6
f 127/1/6 126/1/6 128/1/6
f 129/1/6 130/1/6 131/1/6
f 131/1/6 130/1/6 132/1/6
f 133/1/6 134/1/6 135/1/6
f 135/1/6 134/1/6 136/1/6
