# MagicaVoxel @ Ephtracy

# group
o 

# material
mtllib person.mtl
usemtl palette

# normals
vn -1 0 0
vn 1 0 0
vn 0 0 1
vn 0 0 -1
vn 0 -1 0
vn 0 1 0

# texcoords
vt 0.845703 0.5
vt 0.849609 0.5
vt 0.876953 0.5
vt 0.884766 0.5
vt 0.888672 0.5
vt 0.994141 0.5

# verts
v -0.6 0.2 0.2
v -0.6 0.2 -0.3
v -0.6 0.4 0.2
v -0.6 0.4 -0.3
v -0.6 0.6 0.3
v -0.6 0.6 0.2
v -0.6 1.2 0.2
v -0.6 1.2 0.1
v -0.6 1.3 0.3
v -0.6 1.3 0.2
v -0.6 1.3 0.1
v -0.6 1.4 0.2
v -0.6 1.4 -0.3
v -0.6 1.6 0.2
v -0.6 1.6 -0.2
v -0.6 2 0.2
v -0.6 2 -0.2
v -0.5 0.2 -0.3
v -0.5 0.2 -0.4
v -0.5 0.4 -0.3
v -0.5 0.4 -0.4
v -0.5 0.7 0.4
v -0.5 0.7 0.3
v -0.5 1.1 0.4
v -0.5 1.1 0.3
v -0.5 1.4 0.3
v -0.5 1.4 0.2
v -0.5 1.4 0
v -0.5 1.4 -0.3
v -0.5 1.4 -0.4
v -0.5 1.5 0
v -0.5 1.5 -0.3
v -0.5 1.6 0.2
v -0.5 1.6 -0.2
v -0.5 2 0.2
v -0.5 2 -0.2
v -0.5 2.1 0.3
v -0.5 2.1 -0.3
v -0.4 0.4 0.3
v -0.4 0.4 0.2
v -0.4 0.6 0.4
v -0.4 0.6 0.3
v -0.4 0.6 0.2
v -0.4 0.7 0.4
v -0.4 0.7 0.3
v -0.4 1.4 0
v -0.4 1.4 -0.2
v -0.4 1.5 0
v -0.4 1.5 -0.2
v -0.4 1.6 -0.3
v -0.4 1.6 -0.4
v -0.4 2 -0.3
v -0.4 2 -0.4
v -0.4 2.1 0.2
v -0.4 2.1 -0.2
v -0.4 2.2 0.2
v -0.4 2.2 -0.2
v -0.3 0.5 0.4
v -0.3 0.5 0.3
v -0.3 0.6 0.4
v -0.3 0.6 0.3
v -0.2 1.8 0.3
v -0.2 1.8 0.2
v -0.2 1.9 0.3
v -0.2 1.9 0.2
v -5.96046e-008 1.7 0.3
v -5.96046e-008 1.7 0.2
v -5.96046e-008 1.8 0.3
v -5.96046e-008 1.8 0.2
v 0.1 1.6 0.3
v 0.1 1.6 0.2
v 0.1 1.7 0.3
v 0.1 1.7 0.2
v 0.2 1.8 0.3
v 0.2 1.8 0.2
v 0.2 1.9 0.3
v 0.2 1.9 0.2
v -0.4 1.8 0.3
v -0.4 1.8 0.2
v -0.4 1.9 0.3
v -0.4 1.9 0.2
v -0.3 1.6 0.3
v -0.3 1.6 0.2
v -0.3 1.7 0.3
v -0.3 1.7 0.2
v -0.2 1.7 0.3
v -0.2 1.7 0.2
v -0.2 1.8 0.3
v -0.2 1.8 0.2
v -5.96046e-008 1.8 0.3
v -5.96046e-008 1.8 0.2
v -5.96046e-008 1.9 0.3
v -5.96046e-008 1.9 0.2
v 0.1 0.5 0.4
v 0.1 0.5 0.3
v 0.1 0.6 0.4
v 0.1 0.6 0.3
v 0.2 0.4 0.3
v 0.2 0.4 0.2
v 0.2 0.6 0.4
v 0.2 0.6 0.3
v 0.2 0.6 0.2
v 0.2 0.7 0.4
v 0.2 0.7 0.3
v 0.2 1.4 0
v 0.2 1.4 -0.2
v 0.2 1.5 0
v 0.2 1.5 -0.2
v 0.2 1.6 -0.3
v 0.2 1.6 -0.4
v 0.2 2 -0.3
v 0.2 2 -0.4
v 0.2 2.1 0.2
v 0.2 2.1 -0.2
v 0.2 2.2 0.2
v 0.2 2.2 -0.2
v 0.3 0.2 -0.3
v 0.3 0.2 -0.4
v 0.3 0.4 -0.3
v 0.3 0.4 -0.4
v 0.3 0.7 0.4
v 0.3 0.7 0.3
v 0.3 1.1 0.4
v 0.3 1.1 0.3
v 0.3 1.4 0.3
v 0.3 1.4 0.2
v 0.3 1.4 0
v 0.3 1.4 -0.3
v 0.3 1.4 -0.4
v 0.3 1.5 0
v 0.3 1.5 -0.3
v 0.3 1.6 0.2
v 0.3 1.6 -0.2
v 0.3 2 0.2
v 0.3 2 -0.2
v 0.3 2.1 0.3
v 0.3 2.1 -0.3
v 0.4 0.2 0.2
v 0.4 0.2 -0.3
v 0.4 0.4 0.2
v 0.4 0.4 -0.3
v 0.4 0.6 0.3
v 0.4 0.6 0.2
v 0.4 1.2 0.2
v 0.4 1.2 0.1
v 0.4 1.3 0.3
v 0.4 1.3 0.2
v 0.4 1.3 0.1
v 0.4 1.4 0.2
v 0.4 1.4 -0.3
v 0.4 1.6 0.2
v 0.4 1.6 -0.2
v 0.4 2 0.2
v 0.4 2 -0.2
v -0.5 0.7 0.4
v -0.5 1.1 0.4
v -0.4 0.6 0.4
v -0.4 0.7 0.4
v -0.3 0.5 0.4
v -0.3 0.6 0.4
v 0.1 0.5 0.4
v 0.1 0.6 0.4
v 0.2 0.6 0.4
v 0.2 0.7 0.4
v 0.3 0.7 0.4
v 0.3 1.1 0.4
v -0.6 0.6 0.3
v -0.6 1.3 0.3
v -0.5 0.7 0.3
v -0.5 1.1 0.3
v -0.5 1.4 0.3
v -0.5 2.1 0.3
v -0.4 0.4 0.3
v -0.4 0.6 0.3
v -0.4 0.7 0.3
v -0.4 1.8 0.3
v -0.4 1.9 0.3
v -0.3 0.5 0.3
v -0.3 0.6 0.3
v -0.3 1.6 0.3
v -0.3 1.7 0.3
v -0.2 1.7 0.3
v -0.2 1.8 0.3
v -0.2 1.9 0.3
v -5.96046e-008 1.7 0.3
v -5.96046e-008 1.8 0.3
v -5.96046e-008 1.9 0.3
v 0.1 0.5 0.3
v 0.1 0.6 0.3
v 0.1 1.6 0.3
v 0.1 1.7 0.3
v 0.2 0.4 0.3
v 0.2 0.6 0.3
v 0.2 0.7 0.3
v 0.2 1.8 0.3
v 0.2 1.9 0.3
v 0.3 0.7 0.3
v 0.3 1.1 0.3
v 0.3 1.4 0.3
v 0.3 2.1 0.3
v 0.4 0.6 0.3
v 0.4 1.3 0.3
v -0.6 0.2 0.2
v -0.6 0.4 0.2
v -0.6 0.6 0.2
v -0.6 1.3 0.2
v -0.6 1.4 0.2
v -0.6 1.6 0.2
v -0.6 2 0.2
v -0.5 1.4 0.2
v -0.5 1.6 0.2
v -0.5 2 0.2
v -0.4 0.4 0.2
v -0.4 0.6 0.2
v -0.4 1.8 0.2
v -0.4 1.9 0.2
v -0.4 2.1 0.2
v -0.4 2.2 0.2
v -0.3 1.6 0.2
v -0.3 1.7 0.2
v -0.3 1.8 0.2
v -0.3 1.9 0.2
v -0.2 1.6 0.2
v -0.2 1.7 0.2
v -0.2 1.8 0.2
v -0.2 1.9 0.2
v -5.96046e-008 1.6 0.2
v -5.96046e-008 1.7 0.2
v -5.96046e-008 1.8 0.2
v -5.96046e-008 1.9 0.2
v 0.1 1.6 0.2
v 0.1 1.7 0.2
v 0.1 1.8 0.2
v 0.1 1.9 0.2
v 0.2 0.4 0.2
v 0.2 0.6 0.2
v 0.2 1.8 0.2
v 0.2 1.9 0.2
v 0.2 2.1 0.2
v 0.2 2.2 0.2
v 0.3 1.4 0.2
v 0.3 1.6 0.2
v 0.3 2 0.2
v 0.4 0.2 0.2
v 0.4 0.4 0.2
v 0.4 0.6 0.2
v 0.4 1.3 0.2
v 0.4 1.4 0.2
v 0.4 1.6 0.2
v 0.4 2 0.2
v -0.5 1.4 0
v -0.5 1.5 0
v -0.4 1.4 0
v -0.4 1.5 0
v 0.2 1.4 0
v 0.2 1.5 0
v 0.3 1.4 0
v 0.3 1.5 0
v -0.6 1.6 -0.2
v -0.6 2 -0.2
v -0.5 1.6 -0.2
v -0.5 2 -0.2
v -0.4 1.4 -0.2
v -0.4 1.5 -0.2
v -0.4 2.1 -0.2
v -0.4 2.2 -0.2
v 0.2 1.4 -0.2
v 0.2 1.5 -0.2
v 0.2 2.1 -0.2
v 0.2 2.2 -0.2
v 0.3 1.6 -0.2
v 0.3 2 -0.2
v 0.4 1.6 -0.2
v 0.4 2 -0.2
v -0.6 0.2 -0.3
v -0.6 0.4 -0.3
v -0.6 1.4 -0.3
v -0.5 0.2 -0.3
v -0.5 0.4 -0.3
v -0.5 1.4 -0.3
v -0.5 1.5 -0.3
v -0.5 2.1 -0.3
v -0.4 1.6 -0.3
v -0.4 2 -0.3
v 0.2 1.6 -0.3
v 0.2 2 -0.3
v 0.3 0.2 -0.3
v 0.3 0.4 -0.3
v 0.3 1.4 -0.3
v 0.3 1.5 -0.3
v 0.3 2.1 -0.3
v 0.4 0.2 -0.3
v 0.4 0.4 -0.3
v 0.4 1.4 -0.3
v -0.5 0.2 -0.4
v -0.5 0.4 -0.4
v -0.5 1.4 -0.4
v -0.4 1.6 -0.4
v -0.4 2 -0.4
v 0.2 1.6 -0.4
v 0.2 2 -0.4
v 0.3 0.2 -0.4
v 0.3 0.4 -0.4
v 0.3 1.4 -0.4
v -0.6 0.2 0.2
v 0.4 0.2 0.2
v -0.2 0.2 0.1
v -5.96046e-008 0.2 0.1
v -0.4 0.2 0
v -0.2 0.2 0
v -5.96046e-008 0.2 0
v 0.2 0.2 0
v -0.4 0.2 -0.2
v -0.2 0.2 -0.2
v -5.96046e-008 0.2 -0.2
v 0.2 0.2 -0.2
v -0.6 0.2 -0.3
v -0.5 0.2 -0.3
v -0.2 0.2 -0.3
v -5.96046e-008 0.2 -0.3
v 0.3 0.2 -0.3
v 0.4 0.2 -0.3
v -0.5 0.2 -0.4
v 0.3 0.2 -0.4
v -0.4 0.4 0.3
v 0.2 0.4 0.3
v -0.4 0.4 0.2
v 0.2 0.4 0.2
v -0.3 0.5 0.4
v 0.1 0.5 0.4
v -0.3 0.5 0.3
v 0.1 0.5 0.3
v -0.4 0.6 0.4
v -0.3 0.6 0.4
v 0.1 0.6 0.4
v 0.2 0.6 0.4
v -0.6 0.6 0.3
v -0.4 0.6 0.3
v -0.3 0.6 0.3
v 0.1 0.6 0.3
v 0.2 0.6 0.3
v 0.4 0.6 0.3
v -0.6 0.6 0.2
v -0.4 0.6 0.2
v 0.2 0.6 0.2
v 0.4 0.6 0.2
v -0.5 0.7 0.4
v -0.4 0.7 0.4
v 0.2 0.7 0.4
v 0.3 0.7 0.4
v -0.5 0.7 0.3
v -0.4 0.7 0.3
v 0.2 0.7 0.3
v 0.3 0.7 0.3
v -0.5 1.4 0.3
v 0.3 1.4 0.3
v -0.5 1.4 0.2
v 0.3 1.4 0.2
v -0.5 1.5 0
v -0.4 1.5 0
v 0.2 1.5 0
v 0.3 1.5 0
v -0.4 1.5 -0.2
v 0.2 1.5 -0.2
v -0.5 1.5 -0.3
v 0.3 1.5 -0.3
v -0.6 1.6 0.2
v -0.5 1.6 0.2
v 0.3 1.6 0.2
v 0.4 1.6 0.2
v -0.6 1.6 -0.2
v -0.5 1.6 -0.2
v 0.3 1.6 -0.2
v 0.4 1.6 -0.2
v -0.4 1.6 -0.3
v 0.2 1.6 -0.3
v -0.4 1.6 -0.4
v 0.2 1.6 -0.4
v -0.3 1.7 0.3
v -0.2 1.7 0.3
v -5.96046e-008 1.7 0.3
v 0.1 1.7 0.3
v -0.3 1.7 0.2
v -0.2 1.7 0.2
v -5.96046e-008 1.7 0.2
v 0.1 1.7 0.2
v -0.2 1.8 0.3
v -5.96046e-008 1.8 0.3
v -0.2 1.8 0.2
v -5.96046e-008 1.8 0.2
v -0.4 1.9 0.3
v -0.2 1.9 0.3
v -5.96046e-008 1.9 0.3
v 0.2 1.9 0.3
v -0.4 1.9 0.2
v -0.3 1.9 0.2
v -0.2 1.9 0.2
v -5.96046e-008 1.9 0.2
v 0.1 1.9 0.2
v 0.2 1.9 0.2
v -0.5 1.1 0.4
v 0.3 1.1 0.4
v -0.5 1.1 0.3
v 0.3 1.1 0.3
v -0.6 1.3 0.3
v 0.4 1.3 0.3
v -0.6 1.3 0.2
v 0.4 1.3 0.2
v -0.6 1.4 0.2
v -0.5 1.4 0.2
v 0.3 1.4 0.2
v 0.4 1.4 0.2
v -0.5 1.4 0
v -0.4 1.4 0
v 0.2 1.4 0
v 0.3 1.4 0
v -0.4 1.4 -0.2
v 0.2 1.4 -0.2
v -0.6 1.4 -0.3
v -0.5 1.4 -0.3
v 0.3 1.4 -0.3
v 0.4 1.4 -0.3
v -0.5 1.4 -0.4
v 0.3 1.4 -0.4
v -0.3 1.6 0.3
v 0.1 1.6 0.3
v -0.3 1.6 0.2
v -0.2 1.6 0.2
v -5.96046e-008 1.6 0.2
v 0.1 1.6 0.2
v -0.4 1.8 0.3
v -0.2 1.8 0.3
v -5.96046e-008 1.8 0.3
v 0.2 1.8 0.3
v -0.4 1.8 0.2
v -0.3 1.8 0.2
v -0.2 1.8 0.2
v -5.96046e-008 1.8 0.2
v 0.1 1.8 0.2
v 0.2 1.8 0.2
v -0.6 2 0.2
v -0.5 2 0.2
v 0.3 2 0.2
v 0.4 2 0.2
v -0.6 2 -0.2
v -0.5 2 -0.2
v 0.3 2 -0.2
v 0.4 2 -0.2
v -0.4 2 -0.3
v 0.2 2 -0.3
v -0.4 2 -0.4
v 0.2 2 -0.4
v -0.5 2.1 0.3
v 0.3 2.1 0.3
v -0.4 2.1 0.2
v 0.2 2.1 0.2
v -0.4 2.1 -0.2
v 0.2 2.1 -0.2
v -0.5 2.1 -0.3
v 0.3 2.1 -0.3
v -0.4 2.2 0.2
v 0.2 2.2 0.2
v -0.4 2.2 -0.2
v 0.2 2.2 -0.2

# faces
f 3/5/1 2/5/1 1/5/1
f 4/5/1 2/5/1 3/5/1
f 6/3/1 4/3/1 3/3/1
f 7/3/1 4/3/1 6/3/1
f 7/1/1 6/1/1 5/1/1
f 8/3/1 4/3/1 7/3/1
f 9/1/1 7/1/1 5/1/1
f 9/1/1 8/1/1 7/1/1
f 10/1/1 8/1/1 9/1/1
f 11/3/1 4/3/1 8/3/1
f 11/1/1 8/1/1 10/1/1
f 12/3/1 11/3/1 10/3/1
f 13/3/1 4/3/1 11/3/1
f 13/3/1 11/3/1 12/3/1
f 16/2/1 15/2/1 14/2/1
f 17/2/1 15/2/1 16/2/1
f 20/5/1 19/5/1 18/5/1
f 21/5/1 19/5/1 20/5/1
f 24/2/1 23/2/1 22/2/1
f 25/2/1 23/2/1 24/2/1
f 29/3/1 21/3/1 20/3/1
f 30/3/1 21/3/1 29/3/1
f 31/1/1 28/1/1 27/1/1
f 31/1/1 27/1/1 26/1/1
f 33/1/1 31/1/1 26/1/1
f 33/1/1 32/1/1 31/1/1
f 34/1/1 32/1/1 33/1/1
f 35/1/1 33/1/1 26/1/1
f 36/1/1 32/1/1 34/1/1
f 37/1/1 35/1/1 26/1/1
f 37/1/1 36/1/1 35/1/1
f 38/1/1 32/1/1 36/1/1
f 38/1/1 36/1/1 37/1/1
f 42/1/1 40/1/1 39/1/1
f 43/1/1 40/1/1 42/1/1
f 44/2/1 42/2/1 41/2/1
f 45/2/1 42/2/1 44/2/1
f 48/4/1 47/4/1 46/4/1
f 49/4/1 47/4/1 48/4/1
f 52/2/1 51/2/1 50/2/1
f 53/2/1 51/2/1 52/2/1
f 56/2/1 55/2/1 54/2/1
f 57/2/1 55/2/1 56/2/1
f 60/2/1 59/2/1 58/2/1
f 61/2/1 59/2/1 60/2/1
f 64/1/1 63/1/1 62/1/1
f 65/1/1 63/1/1 64/1/1
f 68/1/1 67/1/1 66/1/1
f 69/1/1 67/1/1 68/1/1
f 72/1/1 71/1/1 70/1/1
f 73/1/1 71/1/1 72/1/1
f 76/1/1 75/1/1 74/1/1
f 77/1/1 75/1/1 76/1/1
f 78/1/2 79/1/2 80/1/2
f 80/1/2 79/1/2 81/1/2
f 82/1/2 83/1/2 84/1/2
f 84/1/2 83/1/2 85/1/2
f 86/1/2 87/1/2 88/1/2
f 88/1/2 87/1/2 89/1/2
f 90/1/2 91/1/2 92/1/2
f 92/1/2 91/1/2 93/1/2
f 94/2/2 95/2/2 96/2/2
f 96/2/2 95/2/2 97/2/2
f 98/1/2 99/1/2 101/1/2
f 101/1/2 99/1/2 102/1/2
f 100/2/2 101/2/2 103/2/2
f 103/2/2 101/2/2 104/2/2
f 105/4/2 106/4/2 107/4/2
f 107/4/2 106/4/2 108/4/2
f 109/2/2 110/2/2 111/2/2
f 111/2/2 110/2/2 112/2/2
f 113/2/2 114/2/2 115/2/2
f 115/2/2 114/2/2 116/2/2
f 117/5/2 118/5/2 119/5/2
f 119/5/2 118/5/2 120/5/2
f 121/2/2 122/2/2 123/2/2
f 123/2/2 122/2/2 124/2/2
f 119/3/2 120/3/2 128/3/2
f 128/3/2 120/3/2 129/3/2
f 126/1/2 127/1/2 130/1/2
f 125/1/2 126/1/2 130/1/2
f 125/1/2 130/1/2 132/1/2
f 130/1/2 131/1/2 132/1/2
f 132/1/2 131/1/2 133/1/2
f 125/1/2 132/1/2 134/1/2
f 133/1/2 131/1/2 135/1/2
f 125/1/2 134/1/2 136/1/2
f 134/1/2 135/1/2 136/1/2
f 135/1/2 131/1/2 137/1/2
f 136/1/2 135/1/2 137/1/2
f 138/5/2 139/5/2 140/5/2
f 140/5/2 139/5/2 141/5/2
f 140/3/2 141/3/2 143/3/2
f 143/3/2 141/3/2 144/3/2
f 142/1/2 143/1/2 144/1/2
f 144/3/2 141/3/2 145/3/2
f 142/1/2 144/1/2 146/1/2
f 144/1/2 145/1/2 146/1/2
f 146/1/2 145/1/2 147/1/2
f 145/3/2 141/3/2 148/3/2
f 147/1/2 145/1/2 148/1/2
f 147/3/2 148/3/2 149/3/2
f 148/3/2 141/3/2 150/3/2
f 149/3/2 148/3/2 150/3/2
f 151/2/2 152/2/2 153/2/2
f 153/2/2 152/2/2 154/2/2
f 158/2/3 156/2/3 155/2/3
f 160/2/3 158/2/3 157/2/3
f 161/2/3 160/2/3 159/2/3
f 162/2/3 158/2/3 160/2/3
f 162/2/3 160/2/3 161/2/3
f 163/2/3 158/2/3 162/2/3
f 164/2/3 156/2/3 158/2/3
f 164/2/3 158/2/3 163/2/3
f 165/2/3 156/2/3 164/2/3
f 166/2/3 156/2/3 165/2/3
f 169/1/3 168/1/3 167/1/3
f 170/1/3 168/1/3 169/1/3
f 174/1/3 169/1/3 167/1/3
f 175/1/3 169/1/3 174/1/3
f 176/1/3 172/1/3 171/1/3
f 177/1/3 172/1/3 176/1/3
f 178/1/3 174/1/3 173/1/3
f 179/1/3 174/1/3 178/1/3
f 180/1/3 176/1/3 171/1/3
f 181/1/3 176/1/3 180/1/3
f 182/1/3 176/1/3 181/1/3
f 183/1/3 176/1/3 182/1/3
f 184/1/3 172/1/3 177/1/3
f 186/1/3 184/1/3 183/1/3
f 187/1/3 172/1/3 184/1/3
f 187/1/3 184/1/3 186/1/3
f 188/1/3 178/1/3 173/1/3
f 190/1/3 180/1/3 171/1/3
f 191/1/3 186/1/3 185/1/3
f 192/1/3 189/1/3 188/1/3
f 192/1/3 188/1/3 173/1/3
f 193/1/3 189/1/3 192/1/3
f 195/1/3 191/1/3 190/1/3
f 195/1/3 186/1/3 191/1/3
f 196/1/3 172/1/3 187/1/3
f 197/1/3 194/1/3 193/1/3
f 198/1/3 168/1/3 170/1/3
f 199/1/3 190/1/3 171/1/3
f 199/1/3 196/1/3 195/1/3
f 199/1/3 195/1/3 190/1/3
f 200/1/3 172/1/3 196/1/3
f 200/1/3 196/1/3 199/1/3
f 201/1/3 197/1/3 193/1/3
f 201/1/3 198/1/3 197/1/3
f 202/1/3 168/1/3 198/1/3
f 202/1/3 198/1/3 201/1/3
f 210/3/3 207/3/3 206/3/3
f 211/2/3 209/2/3 208/2/3
f 212/2/3 209/2/3 211/2/3
f 213/5/3 204/5/3 203/5/3
f 213/3/3 205/3/3 204/3/3
f 214/3/3 205/3/3 213/3/3
f 221/4/3 216/4/3 215/4/3
f 222/4/3 216/4/3 221/4/3
f 223/4/3 220/4/3 219/4/3
f 224/4/3 220/4/3 223/4/3
f 225/6/3 222/6/3 221/6/3
f 226/6/3 222/6/3 225/6/3
f 227/6/3 224/6/3 223/6/3
f 228/4/3 225/4/3 224/4/3
f 228/6/3 224/6/3 227/6/3
f 229/4/3 225/4/3 228/4/3
f 231/4/3 228/4/3 227/4/3
f 232/4/3 228/4/3 231/4/3
f 233/6/3 230/6/3 229/6/3
f 234/6/3 230/6/3 233/6/3
f 235/5/3 213/5/3 203/5/3
f 237/4/3 234/4/3 233/4/3
f 238/4/3 234/4/3 237/4/3
f 239/2/3 218/2/3 217/2/3
f 240/2/3 218/2/3 239/2/3
f 241/3/3 210/3/3 206/3/3
f 244/5/3 235/5/3 203/5/3
f 245/3/3 236/3/3 235/3/3
f 245/5/3 235/5/3 244/5/3
f 246/3/3 236/3/3 245/3/3
f 247/3/3 241/3/3 206/3/3
f 248/3/3 241/3/3 247/3/3
f 249/2/3 243/2/3 242/2/3
f 250/2/3 243/2/3 249/2/3
f 251/1/4 252/1/4 253/1/4
f 253/1/4 252/1/4 254/1/4
f 255/1/4 256/1/4 257/1/4
f 257/1/4 256/1/4 258/1/4
f 259/2/4 260/2/4 261/2/4
f 261/2/4 260/2/4 262/2/4
f 263/4/4 264/4/4 267/4/4
f 267/4/4 264/4/4 268/4/4
f 265/2/4 266/2/4 269/2/4
f 269/2/4 266/2/4 270/2/4
f 271/2/4 272/2/4 273/2/4
f 273/2/4 272/2/4 274/2/4
f 275/5/4 276/5/4 278/5/4
f 276/3/4 277/3/4 279/3/4
f 278/5/4 276/5/4 279/5/4
f 279/3/4 277/3/4 280/3/4
f 281/1/4 282/1/4 283/1/4
f 283/1/4 282/1/4 284/1/4
f 281/1/4 283/1/4 285/1/4
f 284/1/4 282/1/4 286/1/4
f 281/1/4 285/1/4 290/1/4
f 285/1/4 286/1/4 290/1/4
f 286/1/4 282/1/4 291/1/4
f 290/1/4 286/1/4 291/1/4
f 287/5/4 288/5/4 292/5/4
f 288/3/4 289/3/4 293/3/4
f 292/5/4 288/5/4 293/5/4
f 293/3/4 289/3/4 294/3/4
f 298/2/4 299/2/4 300/2/4
f 300/2/4 299/2/4 301/2/4
f 295/5/4 296/5/4 302/5/4
f 296/3/4 297/3/4 303/3/4
f 302/5/4 296/5/4 303/5/4
f 303/3/4 297/3/4 304/3/4
f 307/5/5 306/5/5 305/5/5
f 308/5/5 306/5/5 307/5/5
f 309/5/5 307/5/5 305/5/5
f 310/3/5 308/3/5 307/3/5
f 310/5/5 307/5/5 309/5/5
f 311/5/5 306/5/5 308/5/5
f 311/3/5 308/3/5 310/3/5
f 312/5/5 306/5/5 311/5/5
f 313/3/5 310/3/5 309/3/5
f 313/5/5 309/5/5 305/5/5
f 313/3/5 312/3/5 311/3/5
f 313/3/5 311/3/5 310/3/5
f 314/3/5 312/3/5 313/3/5
f 315/3/5 312/3/5 314/3/5
f 316/5/5 306/5/5 312/5/5
f 316/3/5 312/3/5 315/3/5
f 317/5/5 313/5/5 305/5/5
f 317/5/5 314/5/5 313/5/5
f 318/5/5 314/5/5 317/5/5
f 319/3/5 315/3/5 314/3/5
f 319/5/5 314/5/5 318/5/5
f 320/5/5 316/5/5 315/5/5
f 320/3/5 315/3/5 319/3/5
f 321/5/5 306/5/5 316/5/5
f 321/5/5 316/5/5 320/5/5
f 322/5/5 306/5/5 321/5/5
f 323/5/5 320/5/5 319/5/5
f 323/5/5 321/5/5 320/5/5
f 323/5/5 319/5/5 318/5/5
f 324/5/5 321/5/5 323/5/5
f 327/1/5 326/1/5 325/1/5
f 328/1/5 326/1/5 327/1/5
f 331/2/5 330/2/5 329/2/5
f 332/2/5 330/2/5 331/2/5
f 338/2/5 334/2/5 333/2/5
f 339/2/5 334/2/5 338/2/5
f 340/2/5 336/2/5 335/2/5
f 341/2/5 336/2/5 340/2/5
f 343/1/5 338/1/5 337/1/5
f 344/1/5 338/1/5 343/1/5
f 345/1/5 342/1/5 341/1/5
f 346/1/5 342/1/5 345/1/5
f 351/2/5 348/2/5 347/2/5
f 352/2/5 348/2/5 351/2/5
f 353/2/5 350/2/5 349/2/5
f 354/2/5 350/2/5 353/2/5
f 357/1/5 356/1/5 355/1/5
f 358/1/5 356/1/5 357/1/5
f 363/1/5 360/1/5 359/1/5
f 364/1/5 362/1/5 361/1/5
f 365/1/5 363/1/5 359/1/5
f 365/1/5 364/1/5 363/1/5
f 366/1/5 362/1/5 364/1/5
f 366/1/5 364/1/5 365/1/5
f 371/2/5 368/2/5 367/2/5
f 372/2/5 368/2/5 371/2/5
f 373/2/5 370/2/5 369/2/5
f 374/2/5 370/2/5 373/2/5
f 377/2/5 376/2/5 375/2/5
f 378/2/5 376/2/5 377/2/5
f 383/1/5 380/1/5 379/1/5
f 384/1/5 380/1/5 383/1/5
f 385/1/5 382/1/5 381/1/5
f 386/1/5 382/1/5 385/1/5
f 389/1/5 388/1/5 387/1/5
f 390/1/5 388/1/5 389/1/5
f 395/1/5 392/1/5 391/1/5
f 396/1/5 392/1/5 395/1/5
f 397/1/5 392/1/5 396/1/5
f 398/1/5 394/1/5 393/1/5
f 399/1/5 394/1/5 398/1/5
f 400/1/5 394/1/5 399/1/5
f 401/2/6 402/2/6 403/2/6
f 403/2/6 402/2/6 404/2/6
f 405/1/6 406/1/6 407/1/6
f 407/1/6 406/1/6 408/1/6
f 409/3/6 410/3/6 413/3/6
f 411/3/6 412/3/6 416/3/6
f 413/3/6 414/3/6 417/3/6
f 415/3/6 416/3/6 418/3/6
f 413/3/6 417/3/6 419/3/6
f 417/3/6 418/3/6 419/3/6
f 409/3/6 413/3/6 419/3/6
f 419/3/6 418/3/6 420/3/6
f 418/3/6 416/3/6 421/3/6
f 420/3/6 418/3/6 421/3/6
f 416/3/6 412/3/6 421/3/6
f 421/3/6 412/3/6 422/3/6
f 420/3/6 421/3/6 423/3/6
f 423/3/6 421/3/6 424/3/6
f 425/1/6 426/1/6 427/1/6
f 427/1/6 426/1/6 428/1/6
f 428/1/6 426/1/6 429/1/6
f 429/1/6 426/1/6 430/1/6
f 431/1/6 432/1/6 435/1/6
f 435/1/6 432/1/6 436/1/6
f 436/1/6 432/1/6 437/1/6
f 433/1/6 434/1/6 438/1/6
f 438/1/6 434/1/6 439/1/6
f 439/1/6 434/1/6 440/1/6
f 441/2/6 442/2/6 445/2/6
f 445/2/6 442/2/6 446/2/6
f 443/2/6 444/2/6 447/2/6
f 447/2/6 444/2/6 448/2/6
f 449/2/6 450/2/6 451/2/6
f 451/2/6 450/2/6 452/2/6
f 453/1/6 454/1/6 455/1/6
f 455/1/6 454/1/6 456/1/6
f 453/1/6 455/1/6 457/1/6
f 456/1/6 454/1/6 458/1/6
f 453/1/6 457/1/6 459/1/6
f 457/1/6 458/1/6 459/1/6
f 458/1/6 454/1/6 460/1/6
f 459/1/6 458/1/6 460/1/6
f 461/2/6 462/2/6 463/2/6
f 463/2/6 462/2/6 464/2/6
