# MagicaVoxel @ Ephtracy

# group
o 

# material
mtllib portal.mtl
usemtl palette

# normals
vn -1 0 0
vn 1 0 0
vn 0 0 1
vn 0 0 -1
vn 0 -1 0
vn 0 1 0

# texcoords
vt 0.814453 0.5
vt 0.818359 0.5
vt 0.822266 0.5
vt 0.939453 0.5
vt 0.970703 0.5
vt 0.978516 0.5

# verts
v -2 0 2
v -2 0 -2
v -2 0.4 2
v -2 0.4 -2
v -0.6 0.6 0.0999999
v -0.6 0.6 -0.1
v -0.6 1.9 0.0999999
v -0.6 1.9 -0.1
v -0.5 0.5 0.0999999
v -0.5 0.5 -0.1
v -0.5 0.6 0.0999999
v -0.5 0.6 -0.1
v -0.5 1.9 0.0999999
v -0.5 1.9 -0.1
v -0.5 2 0.0999999
v -0.5 2 -0.1
v -0.3 0.4 0.0999999
v -0.3 0.4 -0.1
v -0.3 0.5 0.0999999
v -0.3 0.5 -0.1
v -0.3 2 0.0999999
v -0.3 2 -0.1
v -0.3 2.1 0.0999999
v -0.3 2.1 -0.1
v 0.3 0.4 0.0999999
v 0.3 0.4 -0.1
v 0.3 0.5 0.0999999
v 0.3 0.5 -0.1
v 0.3 2 0.0999999
v 0.3 2 -0.1
v 0.3 2.1 0.0999999
v 0.3 2.1 -0.1
v 0.5 0.5 0.0999999
v 0.5 0.5 -0.1
v 0.5 0.6 0.0999999
v 0.5 0.6 -0.1
v 0.5 1.9 0.0999999
v 0.5 1.9 -0.1
v 0.5 2 0.0999999
v 0.5 2 -0.1
v 0.6 0.6 0.0999999
v 0.6 0.6 -0.1
v 0.6 1.9 0.0999999
v 0.6 1.9 -0.1
v 2 0 2
v 2 0 -2
v 2 0.4 2
v 2 0.4 -2
v -2 0 2
v -2 0.4 2
v -0.7 0.3 2
v -0.7 0.4 2
v -0.6 0.3 2
v -0.6 0.4 2
v 0.6 0.3 2
v 0.6 0.4 2
v 0.7 0.3 2
v 0.7 0.4 2
v 2 0 2
v 2 0.4 2
v -0.6 0.6 0.0999999
v -0.6 1.9 0.0999999
v -0.5 0.5 0.0999999
v -0.5 0.6 0.0999999
v -0.5 0.7 0.0999999
v -0.5 1.1 0.0999999
v -0.5 1.3 0.0999999
v -0.5 1.5 0.0999999
v -0.5 1.7 0.0999999
v -0.5 1.8 0.0999999
v -0.5 1.9 0.0999999
v -0.5 2 0.0999999
v -0.4 1.1 0.0999999
v -0.4 1.2 0.0999999
v -0.4 1.3 0.0999999
v -0.4 1.4 0.0999999
v -0.4 1.6 0.0999999
v -0.4 1.7 0.0999999
v -0.3 0.4 0.0999999
v -0.3 0.5 0.0999999
v -0.3 0.6 0.0999999
v -0.3 0.7 0.0999999
v -0.3 1 0.0999999
v -0.3 1.2 0.0999999
v -0.3 1.3 0.0999999
v -0.3 1.4 0.0999999
v -0.3 1.5 0.0999999
v -0.3 1.8 0.0999999
v -0.3 1.9 0.0999999
v -0.3 2 0.0999999
v -0.3 2.1 0.0999999
v -0.2 0.8 0.0999999
v -0.2 1 0.0999999
v -0.2 1.1 0.0999999
v -0.2 1.3 0.0999999
v -0.2 1.4 0.0999999
v -0.2 1.8 0.0999999
v -0.2 1.9 0.0999999
v -0.0999999 0.5 0.0999999
v -0.0999999 0.6 0.0999999
v -0.0999999 0.7 0.0999999
v -0.0999999 0.8 0.0999999
v -0.0999999 1.1 0.0999999
v -0.0999999 1.2 0.0999999
v -0.0999999 1.5 0.0999999
v -0.0999999 1.6 0.0999999
v -0.0999999 1.9 0.0999999
v -0.0999999 2 0.0999999
v 2.38419e-007 0.6 0.0999999
v 2.38419e-007 0.7 0.0999999
v 2.38419e-007 1.1 0.0999999
v 2.38419e-007 1.2 0.0999999
v 2.38419e-007 1.3 0.0999999
v 2.38419e-007 1.4 0.0999999
v 2.38419e-007 1.5 0.0999999
v 2.38419e-007 1.7 0.0999999
v 2.38419e-007 1.8 0.0999999
v 2.38419e-007 1.9 0.0999999
v 2.38419e-007 2 0.0999999
v 0.1 0.5 0.0999999
v 0.1 0.6 0.0999999
v 0.1 0.9 0.0999999
v 0.1 1 0.0999999
v 0.1 1.1 0.0999999
v 0.1 1.2 0.0999999
v 0.1 1.3 0.0999999
v 0.1 1.4 0.0999999
v 0.1 1.6 0.0999999
v 0.1 1.7 0.0999999
v 0.1 1.8 0.0999999
v 0.1 1.9 0.0999999
v 0.2 1.2 0.0999999
v 0.2 1.3 0.0999999
v 0.2 1.6 0.0999999
v 0.3 0.4 0.0999999
v 0.3 0.5 0.0999999
v 0.3 0.8 0.0999999
v 0.3 0.9 0.0999999
v 0.3 1 0.0999999
v 0.3 1.1 0.0999999
v 0.3 1.3 0.0999999
v 0.3 1.4 0.0999999
v 0.3 1.7 0.0999999
v 0.3 1.8 0.0999999
v 0.3 2 0.0999999
v 0.3 2.1 0.0999999
v 0.4 1.1 0.0999999
v 0.4 1.2 0.0999999
v 0.4 1.4 0.0999999
v 0.4 1.5 0.0999999
v 0.4 1.6 0.0999999
v 0.4 1.7 0.0999999
v 0.5 0.5 0.0999999
v 0.5 0.6 0.0999999
v 0.5 0.8 0.0999999
v 0.5 1.2 0.0999999
v 0.5 1.5 0.0999999
v 0.5 1.6 0.0999999
v 0.5 1.9 0.0999999
v 0.5 2 0.0999999
v 0.6 0.6 0.0999999
v 0.6 1.9 0.0999999
v -0.6 0.6 -0.1
v -0.6 1.9 -0.1
v -0.5 0.5 -0.1
v -0.5 0.6 -0.1
v -0.5 0.7 -0.1
v -0.5 1.1 -0.1
v -0.5 1.3 -0.1
v -0.5 1.5 -0.1
v -0.5 1.7 -0.1
v -0.5 1.8 -0.1
v -0.5 1.9 -0.1
v -0.5 2 -0.1
v -0.4 1.1 -0.1
v -0.4 1.2 -0.1
v -0.4 1.3 -0.1
v -0.4 1.4 -0.1
v -0.4 1.6 -0.1
v -0.4 1.7 -0.1
v -0.3 0.4 -0.1
v -0.3 0.5 -0.1
v -0.3 0.6 -0.1
v -0.3 0.7 -0.1
v -0.3 1 -0.1
v -0.3 1.2 -0.1
v -0.3 1.3 -0.1
v -0.3 1.4 -0.1
v -0.3 1.5 -0.1
v -0.3 1.8 -0.1
v -0.3 1.9 -0.1
v -0.3 2 -0.1
v -0.3 2.1 -0.1
v -0.2 0.8 -0.1
v -0.2 1 -0.1
v -0.2 1.1 -0.1
v -0.2 1.3 -0.1
v -0.2 1.4 -0.1
v -0.2 1.8 -0.1
v -0.2 1.9 -0.1
v -0.0999999 0.5 -0.1
v -0.0999999 0.6 -0.1
v -0.0999999 0.7 -0.1
v -0.0999999 0.8 -0.1
v -0.0999999 1.1 -0.1
v -0.0999999 1.2 -0.1
v -0.0999999 1.5 -0.1
v -0.0999999 1.6 -0.1
v -0.0999999 1.9 -0.1
v -0.0999999 2 -0.1
v 2.38419e-007 0.6 -0.1
v 2.38419e-007 0.7 -0.1
v 2.38419e-007 1.1 -0.1
v 2.38419e-007 1.2 -0.1
v 2.38419e-007 1.3 -0.1
v 2.38419e-007 1.4 -0.1
v 2.38419e-007 1.5 -0.1
v 2.38419e-007 1.7 -0.1
v 2.38419e-007 1.8 -0.1
v 2.38419e-007 1.9 -0.1
v 2.38419e-007 2 -0.1
v 0.1 0.5 -0.1
v 0.1 0.6 -0.1
v 0.1 0.9 -0.1
v 0.1 1 -0.1
v 0.1 1.1 -0.1
v 0.1 1.2 -0.1
v 0.1 1.3 -0.1
v 0.1 1.4 -0.1
v 0.1 1.6 -0.1
v 0.1 1.7 -0.1
v 0.1 1.8 -0.1
v 0.1 1.9 -0.1
v 0.2 1.2 -0.1
v 0.2 1.3 -0.1
v 0.2 1.6 -0.1
v 0.3 0.4 -0.1
v 0.3 0.5 -0.1
v 0.3 0.8 -0.1
v 0.3 0.9 -0.1
v 0.3 1 -0.1
v 0.3 1.1 -0.1
v 0.3 1.3 -0.1
v 0.3 1.4 -0.1
v 0.3 1.7 -0.1
v 0.3 1.8 -0.1
v 0.3 2 -0.1
v 0.3 2.1 -0.1
v 0.4 1.1 -0.1
v 0.4 1.2 -0.1
v 0.4 1.4 -0.1
v 0.4 1.5 -0.1
v 0.4 1.6 -0.1
v 0.4 1.7 -0.1
v 0.5 0.5 -0.1
v 0.5 0.6 -0.1
v 0.5 0.8 -0.1
v 0.5 1.2 -0.1
v 0.5 1.5 -0.1
v 0.5 1.6 -0.1
v 0.5 1.9 -0.1
v 0.5 2 -0.1
v 0.6 0.6 -0.1
v 0.6 1.9 -0.1
v -2 0 -2
v -2 0.4 -2
v 2 0 -2
v 2 0.4 -2
v -2 0 2
v 2 0 2
v -2 0 -2
v 2 0 -2
v -0.5 0.5 0.0999999
v -0.3 0.5 0.0999999
v 0.3 0.5 0.0999999
v 0.5 0.5 0.0999999
v -0.5 0.5 -0.1
v -0.3 0.5 -0.1
v 0.3 0.5 -0.1
v 0.5 0.5 -0.1
v -0.6 0.6 0.0999999
v -0.5 0.6 0.0999999
v 0.5 0.6 0.0999999
v 0.6 0.6 0.0999999
v -0.6 0.6 -0.1
v -0.5 0.6 -0.1
v 0.5 0.6 -0.1
v 0.6 0.6 -0.1
v -2 0.4 2
v -0.7 0.4 2
v -0.6 0.4 2
v 0.6 0.4 2
v 0.7 0.4 2
v 2 0.4 2
v -0.3 0.4 0.0999999
v 0.3 0.4 0.0999999
v -0.3 0.4 -0.1
v 0.3 0.4 -0.1
v -0.6 0.4 -0.5
v 0.6 0.4 -0.5
v -0.7 0.4 -0.6
v 0.7 0.4 -0.6
v -2 0.4 -2
v 2 0.4 -2
v -0.6 1.9 0.0999999
v -0.5 1.9 0.0999999
v 0.5 1.9 0.0999999
v 0.6 1.9 0.0999999
v -0.6 1.9 -0.1
v -0.5 1.9 -0.1
v 0.5 1.9 -0.1
v 0.6 1.9 -0.1
v -0.5 2 0.0999999
v -0.3 2 0.0999999
v 0.3 2 0.0999999
v 0.5 2 0.0999999
v -0.5 2 -0.1
v -0.3 2 -0.1
v 0.3 2 -0.1
v 0.5 2 -0.1
v -0.3 2.1 0.0999999
v 0.3 2.1 0.0999999
v -0.3 2.1 -0.1
v 0.3 2.1 -0.1

# faces
f 3/5/1 2/5/1 1/5/1
f 4/5/1 2/5/1 3/5/1
f 7/1/1 6/1/1 5/1/1
f 8/1/1 6/1/1 7/1/1
f 11/1/1 10/1/1 9/1/1
f 12/1/1 10/1/1 11/1/1
f 15/1/1 14/1/1 13/1/1
f 16/1/1 14/1/1 15/1/1
f 19/1/1 18/1/1 17/1/1
f 20/1/1 18/1/1 19/1/1
f 23/1/1 22/1/1 21/1/1
f 24/1/1 22/1/1 23/1/1
f 25/1/2 26/1/2 27/1/2
f 27/1/2 26/1/2 28/1/2
f 29/1/2 30/1/2 31/1/2
f 31/1/2 30/1/2 32/1/2
f 33/1/2 34/1/2 35/1/2
f 35/1/2 34/1/2 36/1/2
f 37/1/2 38/1/2 39/1/2
f 39/1/2 38/1/2 40/1/2
f 41/1/2 42/1/2 43/1/2
f 43/1/2 42/1/2 44/1/2
f 45/5/2 46/5/2 47/5/2
f 47/5/2 46/5/2 48/5/2
f 51/5/3 50/5/3 49/5/3
f 52/5/3 50/5/3 51/5/3
f 53/5/3 51/5/3 49/5/3
f 53/6/3 52/6/3 51/6/3
f 54/6/3 52/6/3 53/6/3
f 55/5/3 53/5/3 49/5/3
f 55/4/3 54/4/3 53/4/3
f 56/4/3 54/4/3 55/4/3
f 57/5/3 55/5/3 49/5/3
f 57/6/3 56/6/3 55/6/3
f 58/6/3 56/6/3 57/6/3
f 59/5/3 57/5/3 49/5/3
f 59/5/3 58/5/3 57/5/3
f 60/5/3 58/5/3 59/5/3
f 64/1/3 62/1/3 61/1/3
f 65/1/3 62/1/3 64/1/3
f 66/1/3 62/1/3 65/1/3
f 67/1/3 62/1/3 66/1/3
f 68/1/3 62/1/3 67/1/3
f 69/1/3 62/1/3 68/1/3
f 70/1/3 62/1/3 69/1/3
f 71/1/3 62/1/3 70/1/3
f 73/2/3 66/2/3 65/2/3
f 73/3/3 67/3/3 66/3/3
f 74/3/3 67/3/3 73/3/3
f 75/1/3 68/1/3 67/1/3
f 75/3/3 67/3/3 74/3/3
f 76/1/3 68/1/3 75/1/3
f 77/3/3 69/3/3 68/3/3
f 78/2/3 70/2/3 69/2/3
f 78/3/3 69/3/3 77/3/3
f 80/1/3 64/1/3 63/1/3
f 80/1/3 65/1/3 64/1/3
f 81/1/3 65/1/3 80/1/3
f 82/2/3 74/2/3 73/2/3
f 82/1/3 65/1/3 81/1/3
f 82/2/3 73/2/3 65/2/3
f 83/2/3 74/2/3 82/2/3
f 84/3/3 75/3/3 74/3/3
f 84/2/3 74/2/3 83/2/3
f 84/3/3 76/3/3 75/3/3
f 85/3/3 76/3/3 84/3/3
f 86/1/3 68/1/3 76/1/3
f 86/3/3 76/3/3 85/3/3
f 87/3/3 77/3/3 68/3/3
f 87/1/3 68/1/3 86/1/3
f 88/2/3 70/2/3 78/2/3
f 88/2/3 78/2/3 77/2/3
f 88/1/3 72/1/3 71/1/3
f 88/1/3 71/1/3 70/1/3
f 89/1/3 72/1/3 88/1/3
f 90/1/3 72/1/3 89/1/3
f 92/3/3 83/3/3 82/3/3
f 92/3/3 82/3/3 81/3/3
f 93/2/3 84/2/3 83/2/3
f 93/3/3 83/3/3 92/3/3
f 93/2/3 85/2/3 84/2/3
f 94/2/3 85/2/3 93/2/3
f 95/3/3 87/3/3 86/3/3
f 95/2/3 85/2/3 94/2/3
f 95/3/3 86/3/3 85/3/3
f 96/3/3 87/3/3 95/3/3
f 97/2/3 89/2/3 88/2/3
f 97/2/3 88/2/3 77/2/3
f 98/1/3 91/1/3 90/1/3
f 98/2/3 89/2/3 97/2/3
f 98/1/3 90/1/3 89/1/3
f 99/1/3 81/1/3 80/1/3
f 99/1/3 80/1/3 79/1/3
f 100/3/3 92/3/3 81/3/3
f 100/1/3 81/1/3 99/1/3
f 101/3/3 92/3/3 100/3/3
f 102/1/3 93/1/3 92/1/3
f 102/3/3 92/3/3 101/3/3
f 103/3/3 94/3/3 93/3/3
f 103/2/3 95/2/3 94/2/3
f 103/2/3 96/2/3 95/2/3
f 104/2/3 96/2/3 103/2/3
f 105/3/3 77/3/3 87/3/3
f 105/3/3 87/3/3 96/3/3
f 106/2/3 97/2/3 77/2/3
f 106/3/3 77/3/3 105/3/3
f 107/1/3 91/1/3 98/1/3
f 107/3/3 98/3/3 97/3/3
f 108/1/3 91/1/3 107/1/3
f 109/3/3 101/3/3 100/3/3
f 109/3/3 100/3/3 99/3/3
f 110/1/3 102/1/3 101/1/3
f 110/3/3 101/3/3 109/3/3
f 111/3/3 104/3/3 103/3/3
f 111/3/3 103/3/3 93/3/3
f 112/2/3 96/2/3 104/2/3
f 112/3/3 104/3/3 111/3/3
f 113/2/3 96/2/3 112/2/3
f 114/3/3 105/3/3 96/3/3
f 114/2/3 96/2/3 113/2/3
f 115/2/3 106/2/3 105/2/3
f 115/3/3 105/3/3 114/3/3
f 116/2/3 97/2/3 106/2/3
f 116/2/3 106/2/3 115/2/3
f 117/3/3 108/3/3 107/3/3
f 117/2/3 97/2/3 116/2/3
f 117/3/3 107/3/3 97/3/3
f 118/3/3 108/3/3 117/3/3
f 119/1/3 91/1/3 108/1/3
f 119/3/3 108/3/3 118/3/3
f 120/1/3 99/1/3 79/1/3
f 120/3/3 109/3/3 99/3/3
f 121/1/3 110/1/3 109/1/3
f 121/3/3 109/3/3 120/3/3
f 122/1/3 93/1/3 102/1/3
f 122/1/3 110/1/3 121/1/3
f 122/1/3 102/1/3 110/1/3
f 123/3/3 111/3/3 93/3/3
f 123/1/3 93/1/3 122/1/3
f 124/2/3 113/2/3 112/2/3
f 124/3/3 111/3/3 123/3/3
f 124/2/3 112/2/3 111/2/3
f 125/2/3 113/2/3 124/2/3
f 126/3/3 114/3/3 113/3/3
f 126/2/3 113/2/3 125/2/3
f 127/2/3 115/2/3 114/2/3
f 127/3/3 114/3/3 126/3/3
f 127/2/3 116/2/3 115/2/3
f 128/2/3 116/2/3 127/2/3
f 129/3/3 117/3/3 116/3/3
f 129/2/3 116/2/3 128/2/3
f 129/3/3 118/3/3 117/3/3
f 130/3/3 118/3/3 129/3/3
f 131/1/3 119/1/3 118/1/3
f 131/3/3 118/3/3 130/3/3
f 132/3/3 126/3/3 125/3/3
f 132/2/3 125/2/3 124/2/3
f 132/2/3 124/2/3 123/2/3
f 133/2/3 128/2/3 127/2/3
f 133/3/3 126/3/3 132/3/3
f 133/2/3 127/2/3 126/2/3
f 134/3/3 130/3/3 129/3/3
f 134/2/3 128/2/3 133/2/3
f 134/3/3 129/3/3 128/3/3
f 135/1/3 122/1/3 121/1/3
f 135/1/3 121/1/3 120/1/3
f 135/1/3 120/1/3 79/1/3
f 136/1/3 122/1/3 135/1/3
f 137/1/3 122/1/3 136/1/3
f 138/3/3 123/3/3 122/3/3
f 138/1/3 122/1/3 137/1/3
f 139/2/3 132/2/3 123/2/3
f 139/3/3 123/3/3 138/3/3
f 139/2/3 133/2/3 132/2/3
f 140/2/3 133/2/3 139/2/3
f 141/3/3 134/3/3 133/3/3
f 141/2/3 133/2/3 140/2/3
f 142/3/3 134/3/3 141/3/3
f 143/3/3 130/3/3 134/3/3
f 143/3/3 134/3/3 142/3/3
f 144/1/3 131/1/3 130/1/3
f 144/3/3 130/3/3 143/3/3
f 145/1/3 91/1/3 119/1/3
f 145/1/3 131/1/3 144/1/3
f 145/1/3 119/1/3 131/1/3
f 146/1/3 91/1/3 145/1/3
f 147/2/3 142/2/3 141/2/3
f 147/3/3 140/3/3 139/3/3
f 147/2/3 141/2/3 140/2/3
f 147/3/3 139/3/3 138/3/3
f 147/3/3 138/3/3 137/3/3
f 148/2/3 142/2/3 147/2/3
f 149/3/3 143/3/3 142/3/3
f 149/2/3 142/2/3 148/2/3
f 150/3/3 143/3/3 149/3/3
f 151/3/3 143/3/3 150/3/3
f 152/1/3 145/1/3 144/1/3
f 152/3/3 143/3/3 151/3/3
f 152/1/3 144/1/3 143/1/3
f 153/1/3 137/1/3 136/1/3
f 154/1/3 137/1/3 153/1/3
f 155/3/3 148/3/3 147/3/3
f 155/1/3 137/1/3 154/1/3
f 155/3/3 147/3/3 137/3/3
f 156/2/3 150/2/3 149/2/3
f 156/3/3 148/3/3 155/3/3
f 156/2/3 149/2/3 148/2/3
f 157/3/3 151/3/3 150/3/3
f 157/2/3 150/2/3 156/2/3
f 158/1/3 152/1/3 151/1/3
f 158/3/3 151/3/3 157/3/3
f 159/1/3 145/1/3 152/1/3
f 159/1/3 152/1/3 158/1/3
f 160/1/3 145/1/3 159/1/3
f 161/1/3 156/1/3 155/1/3
f 161/1/3 155/1/3 154/1/3
f 161/1/3 159/1/3 158/1/3
f 161/1/3 157/1/3 156/1/3
f 161/1/3 158/1/3 157/1/3
f 162/1/3 159/1/3 161/1/3
f 163/1/4 164/1/4 166/1/4
f 166/1/4 164/1/4 167/1/4
f 167/1/4 164/1/4 168/1/4
f 168/1/4 164/1/4 169/1/4
f 169/1/4 164/1/4 170/1/4
f 170/1/4 164/1/4 171/1/4
f 171/1/4 164/1/4 172/1/4
f 172/1/4 164/1/4 173/1/4
f 167/2/4 168/2/4 175/2/4
f 168/3/4 169/3/4 175/3/4
f 175/3/4 169/3/4 176/3/4
f 169/1/4 170/1/4 177/1/4
f 176/3/4 169/3/4 177/3/4
f 177/1/4 170/1/4 178/1/4
f 170/3/4 171/3/4 179/3/4
f 171/2/4 172/2/4 180/2/4
f 179/3/4 171/3/4 180/3/4
f 165/1/4 166/1/4 182/1/4
f 166/1/4 167/1/4 182/1/4
f 182/1/4 167/1/4 183/1/4
f 175/2/4 176/2/4 184/2/4
f 183/1/4 167/1/4 184/1/4
f 167/2/4 175/2/4 184/2/4
f 184/2/4 176/2/4 185/2/4
f 176/3/4 177/3/4 186/3/4
f 185/2/4 176/2/4 186/2/4
f 177/3/4 178/3/4 186/3/4
f 186/3/4 178/3/4 187/3/4
f 178/1/4 170/1/4 188/1/4
f 187/3/4 178/3/4 188/3/4
f 170/3/4 179/3/4 189/3/4
f 188/1/4 170/1/4 189/1/4
f 180/2/4 172/2/4 190/2/4
f 179/2/4 180/2/4 190/2/4
f 173/1/4 174/1/4 190/1/4
f 172/1/4 173/1/4 190/1/4
f 190/1/4 174/1/4 191/1/4
f 191/1/4 174/1/4 192/1/4
f 184/3/4 185/3/4 194/3/4
f 183/3/4 184/3/4 194/3/4
f 185/2/4 186/2/4 195/2/4
f 194/3/4 185/3/4 195/3/4
f 186/2/4 187/2/4 195/2/4
f 195/2/4 187/2/4 196/2/4
f 188/3/4 189/3/4 197/3/4
f 196/2/4 187/2/4 197/2/4
f 187/3/4 188/3/4 197/3/4
f 197/3/4 189/3/4 198/3/4
f 190/2/4 191/2/4 199/2/4
f 179/2/4 190/2/4 199/2/4
f 192/1/4 193/1/4 200/1/4
f 199/2/4 191/2/4 200/2/4
f 191/1/4 192/1/4 200/1/4
f 182/1/4 183/1/4 201/1/4
f 181/1/4 182/1/4 201/1/4
f 183/3/4 194/3/4 202/3/4
f 201/1/4 183/1/4 202/1/4
f 202/3/4 194/3/4 203/3/4
f 194/1/4 195/1/4 204/1/4
f 203/3/4 194/3/4 204/3/4
f 195/3/4 196/3/4 205/3/4
f 196/2/4 197/2/4 205/2/4
f 197/2/4 198/2/4 205/2/4
f 205/2/4 198/2/4 206/2/4
f 189/3/4 179/3/4 207/3/4
f 198/3/4 189/3/4 207/3/4
f 179/2/4 199/2/4 208/2/4
f 207/3/4 179/3/4 208/3/4
f 200/1/4 193/1/4 209/1/4
f 199/3/4 200/3/4 209/3/4
f 209/1/4 193/1/4 210/1/4
f 202/3/4 203/3/4 211/3/4
f 201/3/4 202/3/4 211/3/4
f 203/1/4 204/1/4 212/1/4
f 211/3/4 203/3/4 212/3/4
f 205/3/4 206/3/4 213/3/4
f 195/3/4 205/3/4 213/3/4
f 206/2/4 198/2/4 214/2/4
f 213/3/4 206/3/4 214/3/4
f 214/2/4 198/2/4 215/2/4
f 198/3/4 207/3/4 216/3/4
f 215/2/4 198/2/4 216/2/4
f 207/2/4 208/2/4 217/2/4
f 216/3/4 207/3/4 217/3/4
f 208/2/4 199/2/4 218/2/4
f 217/2/4 208/2/4 218/2/4
f 209/3/4 210/3/4 219/3/4
f 218/2/4 199/2/4 219/2/4
f 199/3/4 209/3/4 219/3/4
f 219/3/4 210/3/4 220/3/4
f 210/1/4 193/1/4 221/1/4
f 220/3/4 210/3/4 221/3/4
f 181/1/4 201/1/4 222/1/4
f 201/3/4 211/3/4 222/3/4
f 211/1/4 212/1/4 223/1/4
f 222/3/4 211/3/4 223/3/4
f 204/1/4 195/1/4 224/1/4
f 223/1/4 212/1/4 224/1/4
f 212/1/4 204/1/4 224/1/4
f 195/3/4 213/3/4 225/3/4
f 224/1/4 195/1/4 225/1/4
f 214/2/4 215/2/4 226/2/4
f 225/3/4 213/3/4 226/3/4
f 213/2/4 214/2/4 226/2/4
f 226/2/4 215/2/4 227/2/4
f 215/3/4 216/3/4 228/3/4
f 227/2/4 215/2/4 228/2/4
f 216/2/4 217/2/4 229/2/4
f 228/3/4 216/3/4 229/3/4
f 217/2/4 218/2/4 229/2/4
f 229/2/4 218/2/4 230/2/4
f 218/3/4 219/3/4 231/3/4
f 230/2/4 218/2/4 231/2/4
f 219/3/4 220/3/4 231/3/4
f 231/3/4 220/3/4 232/3/4
f 220/1/4 221/1/4 233/1/4
f 232/3/4 220/3/4 233/3/4
f 227/3/4 228/3/4 234/3/4
f 226/2/4 227/2/4 234/2/4
f 225/2/4 226/2/4 234/2/4
f 229/2/4 230/2/4 235/2/4
f 234/3/4 228/3/4 235/3/4
f 228/2/4 229/2/4 235/2/4
f 231/3/4 232/3/4 236/3/4
f 235/2/4 230/2/4 236/2/4
f 230/3/4 231/3/4 236/3/4
f 223/1/4 224/1/4 237/1/4
f 222/1/4 223/1/4 237/1/4
f 181/1/4 222/1/4 237/1/4
f 237/1/4 224/1/4 238/1/4
f 238/1/4 224/1/4 239/1/4
f 224/3/4 225/3/4 240/3/4
f 239/1/4 224/1/4 240/1/4
f 225/2/4 234/2/4 241/2/4
f 240/3/4 225/3/4 241/3/4
f 234/2/4 235/2/4 241/2/4
f 241/2/4 235/2/4 242/2/4
f 235/3/4 236/3/4 243/3/4
f 242/2/4 235/2/4 243/2/4
f 243/3/4 236/3/4 244/3/4
f 236/3/4 232/3/4 245/3/4
f 244/3/4 236/3/4 245/3/4
f 232/1/4 233/1/4 246/1/4
f 245/3/4 232/3/4 246/3/4
f 221/1/4 193/1/4 247/1/4
f 246/1/4 233/1/4 247/1/4
f 233/1/4 221/1/4 247/1/4
f 247/1/4 193/1/4 248/1/4
f 243/2/4 244/2/4 249/2/4
f 241/3/4 242/3/4 249/3/4
f 242/2/4 243/2/4 249/2/4
f 240/3/4 241/3/4 249/3/4
f 239/3/4 240/3/4 249/3/4
f 249/2/4 244/2/4 250/2/4
f 244/3/4 245/3/4 251/3/4
f 250/2/4 244/2/4 251/2/4
f 251/3/4 245/3/4 252/3/4
f 252/3/4 245/3/4 253/3/4
f 246/1/4 247/1/4 254/1/4
f 253/3/4 245/3/4 254/3/4
f 245/1/4 246/1/4 254/1/4
f 238/1/4 239/1/4 255/1/4
f 255/1/4 239/1/4 256/1/4
f 249/3/4 250/3/4 257/3/4
f 256/1/4 239/1/4 257/1/4
f 239/3/4 249/3/4 257/3/4
f 251/2/4 252/2/4 258/2/4
f 257/3/4 250/3/4 258/3/4
f 250/2/4 251/2/4 258/2/4
f 252/3/4 253/3/4 259/3/4
f 258/2/4 252/2/4 259/2/4
f 253/1/4 254/1/4 260/1/4
f 259/3/4 253/3/4 260/3/4
f 254/1/4 247/1/4 261/1/4
f 260/1/4 254/1/4 261/1/4
f 261/1/4 247/1/4 262/1/4
f 257/1/4 258/1/4 263/1/4
f 256/1/4 257/1/4 263/1/4
f 260/1/4 261/1/4 263/1/4
f 258/1/4 259/1/4 263/1/4
f 259/1/4 260/1/4 263/1/4
f 263/1/4 261/1/4 264/1/4
f 265/5/4 266/5/4 267/5/4
f 267/5/4 266/5/4 268/5/4
f 271/5/5 270/5/5 269/5/5
f 272/5/5 270/5/5 271/5/5
f 277/1/5 274/1/5 273/1/5
f 278/1/5 274/1/5 277/1/5
f 279/1/5 276/1/5 275/1/5
f 280/1/5 276/1/5 279/1/5
f 285/1/5 282/1/5 281/1/5
f 286/1/5 282/1/5 285/1/5
f 287/1/5 284/1/5 283/1/5
f 288/1/5 284/1/5 287/1/5
f 291/4/6 292/4/6 295/4/6
f 295/4/6 292/4/6 296/4/6
f 291/4/6 295/4/6 297/4/6
f 296/4/6 292/4/6 298/4/6
f 290/6/6 291/6/6 299/6/6
f 297/4/6 298/4/6 299/4/6
f 291/4/6 297/4/6 299/4/6
f 298/4/6 292/4/6 300/4/6
f 299/4/6 298/4/6 300/4/6
f 292/6/6 293/6/6 300/6/6
f 289/5/6 290/5/6 301/5/6
f 290/6/6 299/6/6 301/6/6
f 299/6/6 300/6/6 301/6/6
f 300/6/6 293/6/6 302/6/6
f 301/6/6 300/6/6 302/6/6
f 293/5/6 294/5/6 302/5/6
f 289/5/6 301/5/6 303/5/6
f 301/5/6 302/5/6 303/5/6
f 302/5/6 294/5/6 304/5/6
f 303/5/6 302/5/6 304/5/6
f 305/1/6 306/1/6 309/1/6
f 309/1/6 306/1/6 310/1/6
f 307/1/6 308/1/6 311/1/6
f 311/1/6 308/1/6 312/1/6
f 313/1/6 314/1/6 317/1/6
f 317/1/6 314/1/6 318/1/6
f 315/1/6 316/1/6 319/1/6
f 319/1/6 316/1/6 320/1/6
f 321/1/6 322/1/6 323/1/6
f 323/1/6 322/1/6 324/1/6
