# MagicaVoxel @ Ephtracy

# group
o 

# material
mtllib right hand.mtl
usemtl palette

# normals
vn -1 0 0
vn 1 0 0
vn 0 0 1
vn 0 0 -1
vn 0 -1 0
vn 0 1 0

# texcoords
vt 0.876953 0.5
vt 0.888672 0.5
vt 0.892578 0.5

# verts
v -1 1.2 0.2
v -1 1.2 -0.2
v -1 1.5 0.2
v -1 1.5 -0.2
v -1 1.6 0.2
v -1 1.6 -0.2
v -1 1.9 0.2
v -1 1.9 -0.2
v -0.9 1.9 0.2
v -0.9 1.9 -0.2
v -0.9 2 0.2
v -0.9 2 -0.2
v -0.8 2 0.2
v -0.8 2 -0.2
v -0.8 2.1 0.2
v -0.8 2.1 -0.2
v -0.7 2.1 0.2
v -0.7 2.1 -0.2
v -0.7 2.2 0.2
v -0.7 2.2 -0.2
v -0.6 2.2 0.2
v -0.6 2.2 -0.2
v -0.6 2.3 0.2
v -0.6 2.3 -0.2
v -0.6 1.2 0.2
v -0.6 1.2 -0.2
v -0.6 1.5 0.2
v -0.6 1.5 -0.2
v -0.6 1.6 0.2
v -0.6 1.6 -0.2
v -0.6 1.8 0.2
v -0.6 1.8 -0.2
v -0.5 1.8 0.2
v -0.5 1.8 -0.2
v -0.5 2.3 0.2
v -0.5 2.3 -0.2
v -1 1.2 0.2
v -1 1.5 0.2
v -1 1.6 0.2
v -1 1.9 0.2
v -0.9 1.9 0.2
v -0.9 2 0.2
v -0.8 2 0.2
v -0.8 2.1 0.2
v -0.7 2.1 0.2
v -0.7 2.2 0.2
v -0.6 1.2 0.2
v -0.6 1.5 0.2
v -0.6 1.6 0.2
v -0.6 1.8 0.2
v -0.6 2.2 0.2
v -0.6 2.3 0.2
v -0.5 1.8 0.2
v -0.5 2.3 0.2
v -1 1.2 -0.2
v -1 1.5 -0.2
v -1 1.6 -0.2
v -1 1.9 -0.2
v -0.9 1.9 -0.2
v -0.9 2 -0.2
v -0.8 2 -0.2
v -0.8 2.1 -0.2
v -0.7 2.1 -0.2
v -0.7 2.2 -0.2
v -0.6 1.2 -0.2
v -0.6 1.5 -0.2
v -0.6 1.6 -0.2
v -0.6 1.8 -0.2
v -0.6 2.2 -0.2
v -0.6 2.3 -0.2
v -0.5 1.8 -0.2
v -0.5 2.3 -0.2
v -1 1.2 0.2
v -0.6 1.2 0.2
v -1 1.2 -0.2
v -0.6 1.2 -0.2
v -0.6 1.8 0.2
v -0.5 1.8 0.2
v -0.6 1.8 -0.2
v -0.5 1.8 -0.2
v -1 1.9 0.2
v -0.9 1.9 0.2
v -1 1.9 -0.2
v -0.9 1.9 -0.2
v -0.9 2 0.2
v -0.8 2 0.2
v -0.9 2 -0.2
v -0.8 2 -0.2
v -0.8 2.1 0.2
v -0.7 2.1 0.2
v -0.8 2.1 -0.2
v -0.7 2.1 -0.2
v -0.7 2.2 0.2
v -0.6 2.2 0.2
v -0.7 2.2 -0.2
v -0.6 2.2 -0.2
v -0.6 2.3 0.2
v -0.5 2.3 0.2
v -0.6 2.3 -0.2
v -0.5 2.3 -0.2

# faces
f 3/3/1 2/3/1 1/3/1
f 4/3/1 2/3/1 3/3/1
f 5/2/1 4/2/1 3/2/1
f 6/2/1 4/2/1 5/2/1
f 7/1/1 6/1/1 5/1/1
f 8/1/1 6/1/1 7/1/1
f 11/1/1 10/1/1 9/1/1
f 12/1/1 10/1/1 11/1/1
f 15/1/1 14/1/1 13/1/1
f 16/1/1 14/1/1 15/1/1
f 19/1/1 18/1/1 17/1/1
f 20/1/1 18/1/1 19/1/1
f 23/1/1 22/1/1 21/1/1
f 24/1/1 22/1/1 23/1/1
f 25/3/2 26/3/2 27/3/2
f 27/3/2 26/3/2 28/3/2
f 27/2/2 28/2/2 29/2/2
f 29/2/2 28/2/2 30/2/2
f 29/1/2 30/1/2 31/1/2
f 31/1/2 30/1/2 32/1/2
f 33/1/2 34/1/2 35/1/2
f 35/1/2 34/1/2 36/1/2
f 41/1/3 40/1/3 39/1/3
f 43/1/3 42/1/3 41/1/3
f 45/1/3 44/1/3 43/1/3
f 47/3/3 38/3/3 37/3/3
f 48/2/3 39/2/3 38/2/3
f 48/3/3 38/3/3 47/3/3
f 49/1/3 46/1/3 45/1/3
f 49/2/3 39/2/3 48/2/3
f 49/1/3 41/1/3 39/1/3
f 49/1/3 45/1/3 43/1/3
f 49/1/3 43/1/3 41/1/3
f 50/1/3 46/1/3 49/1/3
f 51/1/3 46/1/3 50/1/3
f 53/1/3 52/1/3 51/1/3
f 53/1/3 51/1/3 50/1/3
f 54/1/3 52/1/3 53/1/3
f 57/1/4 58/1/4 59/1/4
f 59/1/4 60/1/4 61/1/4
f 61/1/4 62/1/4 63/1/4
f 55/3/4 56/3/4 65/3/4
f 56/2/4 57/2/4 66/2/4
f 65/3/4 56/3/4 66/3/4
f 63/1/4 64/1/4 67/1/4
f 66/2/4 57/2/4 67/2/4
f 57/1/4 59/1/4 67/1/4
f 61/1/4 63/1/4 67/1/4
f 59/1/4 61/1/4 67/1/4
f 67/1/4 64/1/4 68/1/4
f 68/1/4 64/1/4 69/1/4
f 69/1/4 70/1/4 71/1/4
f 68/1/4 69/1/4 71/1/4
f 71/1/4 70/1/4 72/1/4
f 75/3/5 74/3/5 73/3/5
f 76/3/5 74/3/5 75/3/5
f 79/1/5 78/1/5 77/1/5
f 80/1/5 78/1/5 79/1/5
f 81/1/6 82/1/6 83/1/6
f 83/1/6 82/1/6 84/1/6
f 85/1/6 86/1/6 87/1/6
f 87/1/6 86/1/6 88/1/6
f 89/1/6 90/1/6 91/1/6
f 91/1/6 90/1/6 92/1/6
f 93/1/6 94/1/6 95/1/6
f 95/1/6 94/1/6 96/1/6
f 97/1/6 98/1/6 99/1/6
f 99/1/6 98/1/6 100/1/6
